<mxfile host="app.diagrams.net" modified="2021-03-15T08:48:05.192Z" agent="5.0 (Windows NT 10.0; Win64; x64) AppleWebKit/537.36 (KHTML, like Gecko) Chrome/89.0.4389.82 Safari/537.36" etag="Y_84J-MH74Kvv3OwzLf0" version="14.4.8" type="github">
  <diagram id="xEt_LvAYtYHntqo2jq8X" name="Page-1">
    <mxGraphModel dx="2858" dy="1009" grid="1" gridSize="10" guides="1" tooltips="1" connect="1" arrows="1" fold="1" page="1" pageScale="1" pageWidth="827" pageHeight="1169" math="0" shadow="0">
      <root>
        <mxCell id="0" />
        <mxCell id="1" parent="0" />
        <mxCell id="IaiTp9CeSe2zqgJV4JvT-1" value="" style="shape=image;verticalLabelPosition=bottom;labelBackgroundColor=#ffffff;verticalAlign=top;aspect=fixed;imageAspect=0;image=data:image/png,iVBORw0KGgoAAAANSUhEUgAABY0AAAMuCAYAAABVaSw6AAAAAXNSR0IArs4c6QAAAARnQU1BAACxjwv8YQUAAAAJcEhZcwAADsMAAA7DAcdvqGQAAOoOSURBVHhe7N0HeBTl2sbxQ4DQUZCOWBCxFyzY27Fg74r1U+x67BQREERRRIqKShFQQRSkqYiIID303nsJNdRAQnrg/vLuvOkLZJNNsjv7/13XXEfv3Y3Rw87O3DvzPv8RAAAAAAAAAAAWpTEAAAAAAAAAIAOlMQAAAAAAAAAgA6UxAAAAAAAAACADpTEAAAAAAAAAIAOlMQAAAAAAAAAgA6UxAAAAAAAAACADpTEAAAAAAAAAIAOlMQAAAAAAAAAgA6UxAAAAAAAAACADpTEAAAAAAAAAIAOlMQAAAAAAAAAgA6UxAAAAAAAAACADpTEAAAAAAAAAIAOlMQAAAAAAAAAgA6UxAAAAAAAAACADpTEAAAAAAAAAIAOlMQAAAAAAAAAgA6UxAAAAAAAAACADpTEAAAAAAAAAIAOlMQAAAAAAAAAgA6UxAAAAAAAAACADpTEAAAAAAAAAIAOlMQAAAAAAAAAgA6UxAAAAAAAAACADpTEAAAAAAAAAIAOlMQAAAAAAAAAgA6UxAAAAAAAAACADpTEAAABQUKmp0pgx0nPPSeeeK1WqJJUvL51+uvTgg9L330uHDtknAwAAAIGN0hgAAAAoiPHjpXPOSTuyTju0PtZWrZr07bfS4cP2hQAAAEBgSjt6BQAAAOCzI0ekNm2yF8PmKuMWLaS+faUBA6QPP5Suvz77c+68U4qJsT8EAAAACDxpR60AAAAAfPbWW5lF8FlnOVccmyLZm5UrpSZNMp9/zTVSfLx9EAAAAAgslMYAAACAr8xVxOkF8F13SbGx9oFjMIXyBx9kvq5ZM/sAAAAAEFgojQEAAABfREU5g+5M8XvVVVJion0gj7JeoTxhgg0BAACAwEFpDAAAAPiieXOn8C1TRtq40YY+MCXz2Wc7P+OKK2wIAAAABA5KYwAAACCvkpKkKlWcwvfNN22YD8OGOT/DbIsX2xAAAAAIDJTGAAAAQF5NmpRZ9i5ZYsN8SE6WqlZ1fs5HH9kQAAAACAyUxgAAAEBeffaZU/TWqOEMtiuIBx5wfpYZpAcAAAAEEEpjAAAAIK9eeskpeq+/3gYF0KaN87POPdcGAAAAQGCgNAYAAADy6sknnaL3nntsUABdujg/65RTbAAAAAAEBkpjAAAAIK9eeMEpem+6yQYF8MEHzs866ywbAAAAAIGB0hgAAADIq48/doreunVtUABNmzo/q0kTGwAAAACBgdIYAAAAyKuxY52i12zr1tkwHw4flmrVcn5O27Y2BAAAAAIDpTEAAACQV3FxUoUKBS97x43LLJ9nzrQhAAAAEBgojQEAAABfvPiiU/ZWrizt2mVDH5irjBs3dn7GuedKR47YBwAAAIDAQGkMAAAA+GLjRik83Cl9777bKYF90bmz81qz/fqrDQEAAIDAQWkMAAAA+Cpr8fvCC1JKin3gOPr1y3zdXXdxlTEAAAACEqUxAAAA4KstW6QyZTIL4Ouuk1autA96sWePUy6nP99s06bZBwEAAIDAkna0CgAAACDPkpKkK66Q6tSRHnooswQuUUK6/XapZ0/p77+lCROk77+XnnpKKl8+83mNGkn160vXXsuVxgAAAAhIlMYAAACAL156yVnTePZsp/Tt31+qVi2zFD7aZl7TqpUUHy/984+TDRpkfygAAAAQONKOVAEAAADkSfqaxH372sCKiZF69ZJuuUWqWDGzKC5dWrrsMunDD6WtW+2TrQcflGrWlA4csAEAAAAQGCiNAQAAgLyYM8dZx9isTXws5urj/fuddYxTU23oRWSkVK6c9PbbNgAAAAACA6UxAAAAcDy7dkknnyw1biwlJtrQDzp1kkqWlJYutQEAAABQ/CiNAQAAgGNJSZFuvFGqUSP3EhMFZQroBg2k669nKB4AAAACBqUxAAAAcCzvvCOVKiVNnmwDPxs71ln/+OefbQAAAAAUL0pjAAAA4Gh++cUpdHv0sEEhue8+qXZt6eBBGwAAAADFh9IYAAAA8GbJEql8eenxx21QiDZtksqWlZo3twEAAABQfCiNAQAAgJz275fq15cuvFCKi7NhIevY0VkGY8UKGwAAAADFg9IYAAAAyOrwYemOO6QqVaQNG2xYBBISnKL6ppsYigcAAIBiRWkMAAAAZNWunRQWJv39tw2K0J9/OmsoDx1qAwAAAKDoURoDAAAA6X7/XSpRQvr4YxsUg7vvlurWlWJjbQAAAAAULUpjAAAAwFi9WqpcWbrvvuJdHsIsiVGmjNSqlQ0AAACAokVpDAAAAJires85RzrrLOngQRsWo/btnaF4q1bZAAAAACg6lMYAAADAQw9JFStKK1faoJjFx0unnSbdcgtD8QAAAFDkKI0BAAAQ2jp3TjsqTjssHjHCBgHCrK9sfq/hw20AAAAAFA1KYwAAAISu8eOlkiWl1q1tEEDMFcZ33CHVqycdOmRDAAAAoPBRGgMAACA0bdokVa0q3XqrdPiwDQPMunVSeLj0/vs2AAAAAAofpTEAAABCj1kzuFEjZ93gfftsGKDatpVKl5bWrLEBAAAAULgojQEAABB6nn5aKldOWrjQBgEsLk465RSpSROG4gEAAKBIUBoDAAAgtPTsmXYUnHYYPGiQDYLAyJHO7zxqlA0AAACAwkNpDAAAgNAxfbqz1MPrr9sgSJgrjG+7zbni2Fx5DAAAABQiSmMAAACEhu3bpVq1pGuvlZKTbRhEzJrGpvBu184GAAAAQOGgNAYAAID7JSVJV10l1akjRUXZMAi1bi2Fh0vr1tkAAAAA8D9KYwAAALjfK684ZevMmTYIUocOSSefLN15J0PxAAAAUGgojQEAAOBuAwakHfWmHfb27m2DIDdsmPPv88cfNgAAAAD8i9IYAAAA7jVvnlSmjPTcczZwAXOF8c03S6edJsXH2xAAAADwH0pjAAAAuNPu3VK9etJll0mJiTZ0iZUrpVKlpA4dbAAAAAD4D6UxAAAA3Cc1VbrpJql6dWnLFhu6TMuWzlXUGzbYAAAAAPAPSmMAAAC4T/PmUsmS0qRJNnChmBipTh3pnntsAAAAAPgHpTEAAADcZejQtKPctMPcbt1s4GJDhjj/rmPG2AAAAAAoOEpjAAAAuMfSpVKFClLTpjZwOTMUzyzDUb++lJBgQwAAAKBgKI0BAADgDtHRUoMG0gUXSIcO2TAELF/uDMX76CMbAAAAAAVDaQwAAIDgZ664vesu6cQTpXXrbBhC3n1XKltW2rTJBgAAAED+URoDAAAg+LVvL5UoEbpr+x48KNWqJd1/vw0AAACA/KM0BgAAQHAbPdopjDt2tEGIGjw47eg+7fD+779tAAAAAOQPpTEAAACC19q10gknSPfc4yxREcrMv//11zvrOicm2hAAAADwHaUxAAAAglNsrHTeeVLDhtKBAzYMcUuXSiVLSp98YgMAAADAd5TGAAAACE6PPCJVrCgtX24DeLz1llSunBQZaQMAAADAN5TGAAAACD5dujjr9w4bZgNkMFdd16wpPfSQDQAAAADfUBoDAAAguEyY4CzB0LKlDZDLwIFOqT5+vA0AAACAvKM0BgAAQPDYvFmqVk265RYpNdWGyMUMxbvmGumss6SkJBsCAAAAeUNpDAAAgOCQkCBdcol06qnS3r02xFEtXiyFhUmffWYDAAAAIG8ojQEAABAcnnlGKltWWrDABjiu11+XKlSQtm61AQAAAHB8lMYAAAAIfN9846zR++OPNkCeREdL1atLjz5qAwAAAOD4KI0BAAAQ2CIipNKlpddeswF88v33TuH+7782AAAAAI6N0hgAAACBa8cOqXZtZ6hbcrIN4ZPDh6Urr5TOOYeheAAAAMgTSmMAAAAEJlMSm7LYlMamPEb+mXWgS5SQuna1AQAAAHB0lMYAAAAITGY5CrMshVmeAgX36qtSxYrS9u02AAAAALyjNAYAAEDgMQPvzDq8335rAxTYvn3SSSdJjz9uAwAAAMA7SmMAAAAElvnzpbJlpWeftQH8pl8/p4yfPNkGAAAAQG6UxgAAAAgce/ZIp5wiXXqplJBgQ/iNGYrXuLF03nkMFgQAAMBRURoDAAAgMKSmSjffLFWrJkVG2hB+N2+eMxSvRw8bAAAAANlRGgMAACAwtGwplSwp/fuvDVBoXnpJqlRJ2rHDBgAAAEAmSmMAAAAUv2HDnLV2u3SxAQrV3r1S1arSU0/ZAAAAAMhEaQwAAIDitXy5VLGi9MgjNkCR6NPHKeqnTbMBAAAA4KA0BgAAQPE5cEA680xnMFtsrA1RJMwa0mbg4AUXSCkpNgQAAAAojQEAAFBcjhyR7rlHOuEEae1aG6JIzZ7tXG381Vc2AAAAACiNAQAAUFw+/FAqUUIaPdoGKBbPPy9VrixFRdkAAAAAoY7SGAAAAEVvzBinMG7f3gYoNrt3SyeeKD3zjA0AAAAQ6iiNAQAAULTWrXNKyrvucpaoQPH79ltnmYoZM2wAAACAUEZpDAAAgKJz6JB0/vlSgwZSdLQNUezMULxGjaSLL3b+GgAAACGN0hgAAABFp2lTqUIFadkyGyBgzJzpXG38zTc2AAAAQKiiNAYAAEDR6NbNKSWHDrUBAs6zzzpLh5h1jgEAABCyKI0BAABQ+CZOlEqWlJo3twEC0q5d0gknSM89ZwMAAACEIkpjAAAAFK7ISKlaNem//2W93GDQs6dzRfisWTYAAABAqKE0BgAAQOFJSJAuu0w65RRpzx4bIqClpEgXXihdcgklPwAAQIiiNAYAAEDhadZMKltWmjfPBggK06c7Vxv37m0DAAAAhBJKYwAAABQOUzia4vH7722AoPL001KVKlwhDgAAEIIojQEAAOB/M2dK4eHSK6/YAEFn506pcmXpxRdtAAAAgFBBaQwAAAD/MmVjnTrSVVdJSUk2RFD64gupRAlp7lwbAAAAIBRQGgMAAMB/kpOla6+VatWStm+3IYKWGYp3/vnS5ZdLhw/bEAAAAG5HaQwAAAD/ef11qXRpZ5Aa3GHqVGdt6u++swEAAADcjtIYAAAA/jFokFMu9uxpA7jGE09IJ50k7dtnAwAAALgZpTEAAAAKbuFCqVw56emnbQBXMUuNVKzIYEMAAIAQQWkMAACAgtm7VzrtNKlRIyk+3oZwnW7dnKF48+fbAAAAAG5FaQwAAID8M8PRbr3VWbpg0yYbwpXMkMNzz5WuuIKheAAAAC5HaQwAAID8a91aKllSGj/eBnC1SZOcdasHDLABAAAA3IjSGAAAAPkzYoRTIHbubAOEhKZNpWrVpP37bQAAAAC3oTQGAACA71audAajPfSQDRAytm6VKlSQ/vc/GwAAAMBtKI0BAADgm4MHpYYNpXPOkWJjbYiQ0qWLFBYmLVpkAwAAALgJpTEAAADy7sgR6b77pMqVpTVrbIiQk5QknX22dPXVDMUDAABwIUpjAAAA5N3HH0slSkh//GEDhKwJE5w1rX/80QYAAABwC0pjAAAA5M3Ysc6SBO3a2QAh7+GHpRo1pOhoGwAAAMANKI0BAABwfOvXS1WqSHfcwXIEyLRli1S+vPTmmzYAAACAG1AaAwAA4Nji4qQLL5TOOEPav9+GgPXpp84V6EuW2AAAAADBjtIYAAAAx/b4487VpJSC8CYxUTrzTOnaa51BiQAAAAh6lMYAAAA4uh490o4Y0w4ZhwyxAeDFuHHOn5OffrIBAAAAghmlMQAAALybPFkqVUp65x0bAMfwwANSrVrSwYM2AAAAQLCiNAYAAEBuW7dKNWpIN94opaTYEDiGzZulcuX4kgEAAMAFKI0BAACQnVmj9vLLpZNPlnbvtiGQBx9/LJUsKS1bZgMAAAAEI0pjAAAAZPf881KZMtLcuTYA8ighQTrjDOmGGxiKBwAAEMQojQEAAJCpb9+0I8S0Q8T+/W0A+Oivv5w/Q7/8YgMAAAAEG0pjAAAAOGbPlsLDpZdesgGQT/feK9WpI8XE2AAAAADBhNIYAAAAUlSUVLeudOWVUlKSDYF82rhRKltWatHCBgAAAAgmlMYAAAChLiVFuv56qWZNads2GwIF9OGHUqlS0ooVNgAAAECwoDQGAAAIdW+95ZR7U6faAPCD+Hjp9NOl//6XoXgAAABBhtIYAAAglA0enHZEmHZI+OWXNgD8aPRo58/Xr7/aAAAAAMGA0hgAACBULVoklSsnPfmkDYBCcNddznrZsbE2AAAAQKCjNAYAAAhF+/Y5SwdcfLGzjABQWNavl8qUkd57zwYAAAAIdJTGAAAAoebwYalJE6lqVWnjRhsCheiDD6TSpaXVq20AAACAQEZpDAAAEGratJHCwqRx42wAFLK4OOnUU6Vbb2UoHgAAQBCgNAYAAAglo0ZJJUpIn3xiA6CI/PZb2tlH2unHiBE2AAAAQKCiNAYAAAgVq1ZJlSpJDzzA1Z4oeubP3O23S/XqSYcO2RAAAACBiNIYAAAgFMTESGef7Wzmr4HisHatFB7uLJECAACAgEVpDAAA4HbmCs/773euMjZXGwPFyRTGpjg2BTIAAAACEqUxAACA25n1i806xmZNWaC4maUpzBIVZqkKlkkBAAAISJTGAAAAbjZunBQWxnIACCxmGJ4ZiscXGQAAAAGJ0hgAAMCtNm6UqlZ1rug8fNiGQAAwVxjfeqt06qlSXJwNAQAAECgojQEAANwoPl666CKpfn1p/34bAgFk9WqpdGnpgw9sAAAAgEBBaQwAAOBGTz4plS8vLV5sAyAAvfeeVKaMtH69DQAAABAIKI0BAADc5ssvnfViBw+2ARCgYmOlk0+W7rrLBgAAAAgElMYAAABuMnWqVKqU9NZbNgAC3K+/Ol9yjB5tAwAAABQ3SmMAAAC32LZNqllTuuEGKSXFhkCAM0Px/vtf6fTTnbW4AQAAUOwojQEAANwgKUm64gqpbl1p1y4bAkFi5UrnCvkPP7QBAAAAihOlMQAAgBu89JIUHi7Nnm0DIMi0aCGVLStt3GgDAAAAFBdKYwAAgGDXr5+zJmzfvjYAglBMjFSnjnTvvTYAAABAcaE0BgAACGZz5khlykgvvGADIIj98ovzBchff9kAAAAAxYHSGAAAIFiZtYtPPllq3FhKTLQhEMTMUDwzyPGMM6SEBBsCAACgqFEaAwAABKOUFOnGG6UaNaStW20IuMCyZVLJktLHH9sAAAAARY3SGAAAIBi9845UqpQ0ZYoNABcxf77LlZM2b7YBAAAAihKlMQAAQLBJX/e1Rw8bAC5z8KBUq5b0wAM2AAAAQFGiNAYAAAgmS5ZI5ctLjz9uA8ClfvrJ+XJk3DgbAAAAoKhQGgMAAASL/ful+vWlCy+U4uJsCLiUGYp33XXSmWcy6BEAAKCIURoDAAAEg8OHpdtvl6pUkTZssCHgcubKejMU79NPbQAAAICiQGkMAAAQDNq1k8LCpL//tgEQIt5801mSJTLSBgAAAChslMYAAACB7vffpRIlpI8/tgEQQqKjpRo1pIcftgEAAAAKG6UxAABAIFu9WqpcWbrvPmeNVyAU/fhj2plL2qnLhAk2AAAAQGGiNAYAAAhUsbHSOedIZ50lHTxoQyAEmTW9r77aeS8kJdkQAAAAhYXSGAAAIFA99JBUqZK0cqUNgBC2aJGzrneXLjYAAABAYaE0BgAACESdOzu3448caQMA+t//pAoVpK1bbQAAAIDCQGkMAAAQaMaPd66obN3aBgA89u+XqleXmja1AQAAAAoDpTEAAEAg2bRJqlpVuvVWZx1XANkNGOBchT9pkg0AAADgb5TGAAAAgSI+XmrUSDrtNGnfPhsCyMZ8mXLFFdK550rJyTYEAACAP1EaAwAABIqnn5bKlXMGfgE4uvnzpRIlpG7dbAAAAAB/ojQGAAAIBD17Orfc//STDQAc0yuvSBUrStu32wAAAAD+QmkMAABQ3KZPl0qXlt54wwYAjsss4XLSSdITT9gAAAAA/kJpDAAAUJzMVZI1a0rXXcf6rICvvvvOuUJ/yhQbAAAAwB8ojQEAAIpLUpJ05ZVSnTpSVJQNAeSZGYp3+eXS+efzpQsAAIAfURoDAAAUF7Mma3i4NGuWDQD4bO5cZyjeF1/YAAAAAAVFaQwAAFAcBgxwbqvv3dsGAPLtxRelypWlnTttAAAAgIKgNAYAAChq8+ZJZcpIzz1nAwAFsmePVLWq9PTTNgAAAEBBUBoDAAAUpd27pXr1nHVYExNtCKDAzFX75ur96dNtAAAAgPyiNAYAACgqqanSTTdJ1atLW7bYEIBfmPfXJZdIF14opaTYEAAAAPlBaQwAAFBUmjeXSpaUJk2yAQC/MkMlzdXGPXvaAAAAAPlBaQwAAFAUhg51yqxu3WwAoFCYtcJPOEGKirIBAAAAfEVpDAAAUNiWLpUqVJAee8wGAAqNWTf8xBOlZ5+1AQAAAHxFaQwAAFCYoqOlBg2kCy6Q4uJsCKBQffONc2X/zJk2AAAAgC8ojQEAAArLkSPSXXc5Vz2uX29DAIXODMW7+GKpUSPnrwEAAOATSmMAAIDC0r69VKKE9NdfNgBQZGbMcK42/vZbGwAAACCvKI0BAAAKw+jRTmHcsaMNABS5Z55xrvQ36xwDAAAgzyiNAQAA/G3NGumEE6R77nGWqABQPKKinPfi88/bAAAAAHlBaQwAAOBPsbHSeedJDRtKBw7YEECx+eorZ5mK2bNtAAAAgOOhNAYAAPCnRx6RKlaUVqywAYBilZIiXXihdOmlDMUDAADII0pjAAAAf+nSxbmicfhwGwAICNOmOe/NPn1sAAAAgGOhNAYAAPCHCROkkiWlVq1sACCgPPWUVLWqtHevDQAAAHA0lMYAAAAFtXmzdNJJ0i23cPs7EKh27JAqVZJeeskGAAAAOBpKYwAAgIJISJAuuUQ69VSuYAQCXY8eUokS0rx5NgAAAIA3lMYAAAAF8cwzUtmy0oIFNgAQsJKTpfPOkxo3lg4ftiEAAAByojQGAADIr2++STuaSjuc+vFHGwAIeFOmOO/bfv1sAAAAgJwojQEAAPIjIkIqXVr63/9sACBoPP64sw75vn02AAAAQFaUxgAAAL4yA7Vq15auuca53R1AcNm+XapYUXr1VRsAAAAgK0pjAAAAX5iS2JTFpjQ25TGA4NS1qzMUj/XIAQAAcqE0BgAA8MVrr0nh4dLMmTYAEJTMF0DnnCNdeSVD8QAAAHKgNAYAAMirH35IO3pKO3zq1csGAILaxInOe/r7720AAAAAg9IYAAAgL+bPl8qWlZo1swEAV3j0Ual6dWn/fhsAAACA0hgAAOB49uyRTjlFuvRSKSHBhgBcYetWqUIF6fXXbQAAAABKYwAAgGNJTZVuvlmqVk2KjLQhAFf57DMpLExatMgGAAAAoY3SGAAA4FhatpRKlpT+/dcGAFwnKUk66yzpmmukI0dsCAAAELoojQEAAI5m2LC0o6W0w6WuXW0AwLXGj3fe7wMH2gAAACB0URoDAAB4s3y5VLGiMyQLQGh46CGpZk3pwAEbAAAAhCZKYwAAgJxMYXTmmdL550uHDtkQgOuZdcvLl5feessGAAAAoYnSGCEjOjpaM2fO9Mu2b98++1MBAK5j1jO95x7phBOkdetsCCBkfPKJs4750qU2AAAACD2UxggZn332mf7zn//4ZduwYYP9qQAA1/nwQ6lECWnMGBsACCmJic6dBtddx1A8AAAQsiiNETLMlcaRkZFas2aNfvvtNz3++ONeC+GcW8mSJfXEE09o7NixnrJ4+/bt9icCAFzHFMWmMO7QwQYAQtLff6edKaWdKg0ebAMAAIDQQmmMkPb222/nKomzblWrVtXkyZPtswEArmaWojjxROnuu7m6EIB0//1SrVrSwYM2AAAACB2UxghpK1as8FoWp2+TJk2yzwQAuJoZdmeG3plb0s0QPADYtEkqW1Z6910bAAAAhA5KY4S05cuXey2LzdakSRP7LACA6zVtKlWoYD4YbAAAaT76yBmKx74BAACEGEpjhDRzJbG3wthsEydOtM8CALha167O2qXDhtkAAKyEBOmMM6Qbb2TZGgAAEFIojRHSevXqlassNlu1atWUmppqnwUAcC3zBaG5irBFCxsAQA5mQGba8aGGDLEBAACA+1EaI6Q9+OCDuQpjsz333HP2GQAA14qMlKpVk26+WeKLQgDHcs89Up06UkyMDQAAANyN0hghy1xJfOKJJ3otjUePHm2fBQBwJXPL+aWXSqeeKu3ZY0MAOIoNG6QyZaSWLW0AAADgbpTGCFlz5szxWhiXK1dO8fHx9lkAAFdq1kwqW1aaP98GAHAcHTpIpUpJK1faAAAAwL0ojRGyOqQd+Hsrje+66y77DACAK/Xq5axP+sMPNgCAPDAXFZx+urOkDUPxAACAy1EaI2Q1btw4V2Fstm+++cY+AwDgOjNnSuHh0quv2gAAfPDHH86XTsOG2QAAAMCdKI0Rknbt2qUSJUrkKozNtsGsWQcAcJ+dO51BVldfLSUn2xAAfGCuML7zTunkk6XYWBsCAAC4D6UxQtKgQYO8FsZnnXWWfQYAwFVMSXzttVKtWtKOHTYEgHxYt865Y6F1axsAAAC4D6UxQtJjjz3mtTR+55137DMAAK7y+utS6dJSRIQNAKAA2rVz9imrV9sAAADAXSiNEXJSUlJUpUoVr6XxhAkT7LMAAK4xcKCzBilr1gPwl7g46dRTpdtuYygeAABwJUpjhJyIiIhcZbHZKlSooMTERPssAIArLFwolSsnPfOMDQDAT0aNcr6QGjnSBgAAAO5BaYyQ06ZNm1yFsdnuvfde+wwAgCvs3Suddpp0ySVSQoINAcBPzBXGTZpIp5ziXHkMAADgIpTGCDkXX3yx19K4d+/e9hkAgKCXmirdeqt00knS5s02BAA/W7PGWdu4bVsbAAAAuAOlMULK9u3bvRbGZttMqQAA7vHee1LJkhJr1QMobO+/L4WHS2vX2gAAACD4URojpAwYMMBrYXzuuefaZwAAgt7w4c46o599ZgMAKESHDkn16kl33MFQPAAA4BqUxggpDz30UK7C2GwtWrSwzwAABLUVK6SKFaWHH7YBABSB9C+rfv/dBgAAAMGN0hghIzk5WZUqVcpVGJtt4sSJ9lkAgKB18KDUsKF03nlSbKwNAaAImCuMb7nFGb4ZH29DAACA4EVpjJAxefJkr4VxxYoVlZSUZJ8FAAhKprC5917phBOcwVQAUNRWrXKG4rVvbwMAAIDgRWmMkNGyZUuvpfEDDzxgnwEACFoffSSVKCGNHm0DACgGrVpJZcpI69fbAAAAIDhRGiNknHfeeV5L4++++84+AwAQlP76SwoLkz74wAYAUEzM0jh160p3320DAACA4ERpjJCwefNmr4Wx2bZu3WqfBQAIOuZqvhNPlO68Uzp82IYAUIyGDk07y0o7zfrzTxsAAAAEH0pjhITevXvnKovNdsEFF9hnAACCTlyc0nbk0hlnSNHRNgSAYmbWWP/vf6X69aWEBBsCAAAEF0pjhIR77rnHa2n83nvv2WcAAILOY49JFSpIS5faAAACxIoVUqlSUseONgAAAAgulMZwvcTERJUvX95raTxlyhT7LABAUOne3bn929wGDgCBqHlzqWxZaeNGGwAAgtHy5cv12GOP+XUzd0MDgY7SGK43fvz4XGWx2SpXrqzk5GT7LABA0Jg82bmC7913bQAAASgmRqpdW7rvPhsAAIJR3759de6556pBgwaqWLGi134hr1udOnV00UUXacSIEfanA4GL0hiu9/bbb3vdWT/00EP2GQCAoLFli1S9unTTTVJqqg0BIED9/LNzV8TYsTYAAASz1LTjz3nz5unuu+/O1TEcbTNl88CBAxVjvkwEggilMVyvYcOGXnfcAwYMsM8AAASFxETp8sulevWk3bttCAABzAzFu+EGqUEDZx8GAHAFc9fyZZdd5rVryLrdeeedOnjwoH0VEFwojeFq69at87rjNtv27dvtswAAQeH556UyZaS5c20AAEFg2TKpZEmpUycbAADcoGvXrl67hvTNLGlhZiwBwco1pfEbI9eq0/jNWrs7ziaA1LNnT68774svvtg+AwAQFPr0cW7x5i4RAMHo7belcuWkzZttAAAIdl988UWuriHrNnLkSPtMIDi5pjT+77eL9Z+3p3i2iz+fp08nRGrd7nj7KELV7bff7nXn3aZNG/sMAEDAmzVLCg+XXn7ZBgAQZA4ckGrWlB580AYAgGDXokULr32D2cxVxocPH7bPBIKTK0vjrFujrvPVeUKk1u+hQA41cXFxKlOmjNcd+PTp0+2z/Cs1eoe27OXPGgD4TVSUVLeudOWVUlKSDQEgCA0a5Nwx8c8/NgAABLP//ve/ubqG9O3jjz+2zwKCl+tK4xrtZuixgStUodW0XAXyJd3m67N/I7WBAjkkjBkzxuvO+8QTT1RKSop9ln+k7l6kEZ2f1/WnVtGNny0SqxYBgB+YffV11zlX57EOPYBgZ4biXXutmdLMUDwACHJH0vbpplvw1jmYbfny5faZQPByXWn88q9rPH8fl5SqkUt2q+mPK1S+Ze4C+dJu89Xl30ht5KpQ13rttde87rwfeeQR+4yCS929UMM/fU7XnVJeYZ6fX57SGAD85c03pdKlpWnTbAAAQW7xYiksTOrc2QYAgGBkSmFvfYPZGjRo4CmVgWDn2tI4K1Mgj1i8W48epUC+rPt8fT5xizbtS7CvQLAzO+iTTz7Z6w78u+++s8/Kv+RdC/TrJ810bb2ytixO3yiNAcAvfvrJuY37q69sAAAu8cYbUvny0pYtNgAABJuuXbtm6QGyby1btrTPAoJbSJTGWR1KTNXwRbv1yA8rVM5LgXx59wXqSoEc9ObOnet15222TZs22WflU/wcffXcU2rRtb+GDOmt5rfWVamMn09pDAAFtmiRVK6c9NRTNgAAF4mOlmrUkPx49xsAoGgdaz3jwpqhBBS1kCuNszIF8rBFu/XwD8u9FsiNeyxQt0lbtJkCOei89NJLXnfe9evXt8/wn/hp76tR2fR/BqUxABTIvn3S6adLF1+ctoNlCSkALvXjj87dFBMm2AAAECwOHjyoUqVKZfQMWbcqVar4fYYSUFxCujTOKjYxVUMX7tKDA5arbIupuQrkK79YoO6TtyhyPwVyoIuJiVHFihW97sAffPBB+yw/2vm9Hqmc/s+gNAaAfDt8WGrSRKpaVdq40YYA4EJmf3f11dJZZ0lJSTYEAASDESNGZOsZsm6PPfaYfRYQ/CiNvYhJSNGQBbv0wIDlKtPce4HcY/JWbaFADkg9evTwuvM2mxmO53cxw9SsRpj9Z1AaA0C+tWnjDIj65x8bAICLmaV4zD6vSxcbAACCQbNmzbL1DFm3n8xcDsAlKI2PwxTIvyzYpfv7L/NaIF/1xUJ9MWWrtkZTEwaCtWvXqlKlSl533mYz6w75Xezverle+q0plMYAkC+jRkklSkiffmoDAAgB//ufVKGCtHWrDQAAgezw4cOqWbNmtp4hfSuRdiy7e/du+0wg+FEa++BgQop+nh+l+45SIF/95UJ9OWWrtlEgF7nU1FQNGTJEVatW9brzzrq1bdvWswaR38SO1munUhoDQL6tWiVVqiQVxhJCABDI9u+XqleXmja1AQAgkM2fPz9bv5B1u/LKK+2zAHegNM4nUyAPnhele/stU7iXAvmarxbqq6kUyIXFXFFsyt+33npLTzzxxFG/6TvaVrp0aV1xxRVpx+dN9eabb2revHn2J+eDKY1PpzQGgHyJiZHOPls65xznrwEg1AwYkHZWlnZaNmmSDQAAgapjx44ZvULO7aOPPrLPAtyB0tgPDsSn6KdjFMjXfrVQPadu0/YDVIn+0q1bN5177rl+25YtW2Z/cj5QGgNA/hw5Ij3wgFS5srR6tQ0BIMSYoXhXXKG0g1IpOdmGAIBA1Lhx42xFcdbNXIUMuAmlsZ+ZAnnQ3Cjd46VALpG2Xddzkb6etk07KJDdg9IYAPLnk0+cdYx//90GABCiTNFg9ofdutkAABBodu3a5Vm3OGdZbLZatWp51jsG3ITSuBBFx6do4Nyduvu7pSr9bu4C+fqei/TNtG3aeTDJvgJBidIYAHw3bpwUFia1bWsDAAhxr7wiVawobd9uAwBAIBk4cGC2ojjr1qxZM/sswD0ojYuIKZB/nLNTdx2lQL7h60X6djoFclCiNAYA32zcKFWtKt1+u3NbNgBA2rdPOukk6YknbAAACCSPPvpotqI46zZ8+HD7LMA9KI2Lwf64ZP0wZ6fu7LtUpd7NLI/TC+Qbv16kXhHbFRVDgRwUKI0BIO/i46WLLpLq10/7QNxvQwCAx3ffpZ2hpZ2iTZliAwBAIEhJSdEJJ5yQURJn3UqVKqUDBw7YZwLuQWlczPYdStb3s3fqjj65C+Swd6bopm8Wq3fEdu2iQA5clMYAkHdPPimVLy8tWWIDAEAGc/fF5ZdL55/PUDwACCBTp07NVhRn3W688Ub7LMBdKI0DiCmQB8zeodv7LPFaIJt/xz4ztmt3LAVyQKE0BoC8+fJL5wq6n3+2AQAgl7lznaF4X3xhAwBAcWvVqlVGSZxz69q1q30W4C6UxgFq76Fk9Z+1Q016L1HJd3IXyDen/fv2pUAODJTGAHB8U6dKpUpJb79tAwDAUb34olS5srRzpw0AAMXp/PPPz1YUZ91WrFhhnwW4C6VxENgTm6x+M3foNi8Fsvn7W3ot1ndpj5vnoRhQGgPAsW3bJtWsKZlb91JSbAgAOKo9e5yBoU8/bQMAQHGJjIzMVhJn3U499VQdOXLEPhNwF0rjIJNeIN/ay3uBbHLzuLlSGUWE0hgAji4pSbriCunkk6Vdu2wIADiu3r2dJX2mT7cBAKA49OrVK6Mkzrm99tpr9lmA+1AaBzFTIJsrjM2VxmbJipwFsrky2SxxQYFcyCiNAeDoXnpJKlNGmjPHBgCAPElNlS65RLrwQu7SAIBidPfdd2crirNuY8aMsc8C3IfS2CXM2sZmjWOz1nHOAtkM1TNrI5she2bYHvyM0hgAvOvXz7lK7rvvbAAA8MmsWc5+tGdPGwAAilJ8fLzKlStnz/ezb2XLllVcXJx9JuA+lMYutCsmSX1mbPf8N/FWIN/eZ4m+n71T++MokP2C0hgAcjNXFpsrjM0wJwBA/j33nHTCCVJUlA0AAEVl7Nix2YrirNsdd9xhnwW4E6Wxy0XFJKl3xHbd9I33AvmOPkv1wxwK5AKhNAaA7MzaxWYNY7OWsVnTGACQf7t3SyeeKD37rA0AAEXl9ddfz1YUZ92+/vpr+yzAnSiNQ4gpkHtFbNeNXy9SiSzlsdlKvztVd/alQM6X2N/1yimZpfENnRdSGgMIXWbdzRtvlGrUkLZutSEAoEC++cZZpmLmTBsAAArbkSNHdPrpp2eUxDm3DRs22GcC7kRpHKJ2HkzSt9O36YajFMh3fbdUP87Zqeh4hm4cV8xwPVczzH5wlNVVHWdTGgMIXe+8I5UqJU2dagMAQIGZoXgXXyw1auT8NQCg0K1cuTJbSZx1O/vss+2zAPeiNIZ2HEjUN9O26fqe3gvku79bqoFzd+oABbJXqZv76P5K6R8epXTmm38r1j4GACHll1+cK+G++MIGAAC/mTHD2cd++60NAACFqVu3bvY8P/f27rvv2mcB7kVpjGy2H0jU19O26TovBXJ486m6p98yDZobRYGcLnad/mh1naqGZX54hDdoqq9n7uBqYwChZckSqXx56cknbQAA8LtnnnHWNzbrHAMACtVNN92UrSjOuk2cONE+C3AvSmMclSmQe07dpmu/WpitPE4vkO/tt0w/zYvSwYRQK5DjNafHI7qq0TmqVyVcYV4+QP4TVlYnnX6+Lr2htcZw2TEAt9u/X6pfX7roIikuzoYAAL+LipJOOEF6/nkbAAAKw4EDB1SqVPrsouxbxYoVlcSwZ4QASmPkybboRH01dauu8VIgl2k+Vff1X6bBIVkgA0CIO3xYuuMOqUoViWEgAFD4vvrKWaZi9mwbAAD8bcSIEbnK4vTtgQcesM8C3I3SGD7bGp2oL6ds1dVfei+Q7++/TD/Pj1IMBTIAuF+7dlJYmPT33zYAABSqlLRj7AsvlC69lKF4AFBImjVr5rUwNlv//v3tswB3ozRGgWzZn6AvpmzVVV94L5AfGLBcvyzYRYEMAG70++9SiRJSp042AAAUiWnTnKuN+/SxAQDAXw4fPqyaNWvmKovTt+3bt9tnAu5GaQy/MQVyj8lbdeUXC3IVyGVbTNWDA5ZryIJdik3kiggACHqrV0uVK0v33y8dOWJDAECReeopqWpVae9eGwAA/GH+/Pley2KzNWrUyD4LcD9KYxSKyP0J6j55i67o4b1Afuj75Rq6kAIZAIJSbKx0zjnSWWdJMTE2BAAUqR07pEqVpJdesgEAwB86duzotTA2W9u2be2zClfq/g2aP2Wc/hjxq3797S/9G7FEWzjsRhGjNEah27wvQd0mbVFjLwVyuZbT9PAPy/Xrwl06RIEMAMHhoYecomLVKhsAAIpFjx7OMkHz5tkAAFBQjRs39loYm23GjBn2WYUhTpum9NN7j16l0yuHKSzbPztM4SedrRufbq9Bs7Yr0b4CKEyUxihSm/YlqOvELbq8u/cC+ZEfVmjYot0UyAAQqDp3dgqKUaNsAAAoNsnJ0nnnmYbDLMJpQwBAfkVFRaUd6pbIUtZmblWqVFFqYQ0gjV+v0R/crlPDw7z+s7NuYWXr684Px2ojzTEKGaUxis3GvfH6fOIWXdZ9fq4CuXzLaXr0xxUavmi34pIokAEgIIwfL5UsKb3/vg0AAMVuypS0s7q007p+/WwAAMiv/v375ypp07eHH37YPsvPUjdp5OuNVCnM+z/X6xZWQRe+8LPWUByjEFEaIyBs2BOvLv9G6tJu3gvkpj+u0IjFFMgAUGw2bZJOOklq0oSr2QAg0Dz+uLOP3rfPBgCA/Ljrrru8l7RpW9++fe2z/ClZ6354XKeWMv+MMFU4/To99V43DRg+VhOnTtWEP4eqd8eX1eTsyjmWq0jbwqrr1s/nKNb+JMDfKI0RcNbviddn/0bqEi8FcoVW0/TYwBUauWS34imQAaBoxMdLZlL06adTSABAINq+XapYUXr1VRsAAHy1ZcsWhYUdfXmIjRs32mf60b6/9Oa54fpPqZq67o0fNW/3UXqOvQv0/cuXqUqOq5HDatyv3muS7ZMA/6I0RkAzBXLnCZFq1DV3gVyx1TQ9PnCFRlEgA0DhevppqVw5adEiGwAAAk7Xrs6a8wsW2AAA4Iv27dtnK2SzbjVq1LDP8qdUbR30pOqUqqGbO07RruPVGskbNfzlC1Q+a3EcVl43dF7IYDwUCkpjBI11u+P16YRIXfz5PK8F8hODVuq3pXuUkMxt0wDgNz17OmtlDh5sAwBAQDJD8c45R7rySpYRAgAfJaftQ2vXrp1ZxubYGpuBo363Sz8/XUd17vtWK/LY+qbu/E2vnBWe5XcLU6X7emsT19GhEFAaIyit3R2nT8Zv1kVeCuRK703Xkz+t1O8UyABQMNOnS6VLS2++aQMAQECbONH5ou/7720AAMiLTz/9NEsRm3srlNI47h+9e/4Vajvdl1WJ4zWzwxUqm+V3K3v5B4qItw8DfkRpjKC3ZlecOo3frAu7eC+Qn/pppf5YtkeJKRTIAJBnZn3MWrWk66+XUlJsCAAIeI8+KlWvLu3fbwMAwLGMHDlSpUqVylYS59xKlCihOXPm2Ff4Scwc/dLrL63zcUniuHFvqWF45u9WtnEHzaQ0RiGgNIarrN4Vp4//2awLvBTIld+brqcHr9RoCmQAOLakJOmqq6S6daWoKBsCAILC1q1ShQrS66/bAACQU2pqqmbNmqUnn3wyWzl8rK1q1aqeK5KXLVumw8W4DFDy0q66uULm71Xp7m+0nuUpUAgojeFaq6Li9NG4zTr/s7leC+T/G7xKfy7fS4EMADm98ooUHq60I2kbAACCymefSWFhDDAFgCz+7//+T1deeaXOP/98ValSJVsh7OtWpkwZ1atXT5deeqnmzZtn/wlFI3l5N92SURqH6/yW/yrOPgb4E6UxQsLKqEPqOG6TzvNSIJ/Qerqe+XmVxizfqyQKZAChzqyDmXYAqj59bAAACDrmjpGzzpKuuUY6csSGABC6tm/frv/+979+326++WbFxvqyJnHBxU1urYvSl6co1UD/+zPaPgL4F6UxQs6KnYf04d+bdG7n3AXyibZA/msFBTKAEGSukihTRnr+eRsAAILW+PHOl4ADB9oAABD8UrWx9/2qHOaUxuEXtdLEGPsQ4GeUxghpy3ccUoe/N+mcT70XyM/+vEpjV1IgAwgBu3dL9epJl18uJSbaEAAQ1B56SKpZUzpwwAYAgKCWukODnqylMHOVcVhV3fnVCvk4Rw/IM0pjIM2RI0e0bMchtR+7SWd/OidXgVzl/Qg1+2WV/l65T8mpFMgAXCY1VbrpJmfa/pYtNgQABL3ISKl8eemtt2wAAAhmqZsG6NGaYfrPf8JUtlFLTdhvHwAKAaUxkIMpkJduj9UHYzfqrE9yF8hV20TouV9Wa9wqCmQALtG8uVSypDR5sg0AAK7xySfOPn7pUhsAAIJTvOZ/eoMqmaUpws/WyyO2KtU+AhQGSmPgGEyBvGR7rNr9tVENj1IgPz9ktf6hQAYQrIYOdda87N7dBgAAVzFLDp15pnTddQzFA4AglrpliJ6tX0r/CQvX2S/8qkgaYxQySmMgj0yBvHhbrNqO2agzO+UukE9qE6EXhq7W+NX7lJLKATmAIGCuOqtQQXr8cRsAAFzp77+dLwgHD7YBACC47Na4dy9W2bAwlb/4TY3eTmOMwkdpDOSDKZAXbYtVmzEb1aDT7FwFcrW2EXpx6GpNWL2fAhlAYIqOlho0kC64QIqLsyEAwLXuv1+qVUs6eNAGAIBgsXt8K11WIUxh1f+rj6ezkDGKBqUxUECmQF64NUbv/7lBZ3zsvUB+Ke3P5b9rKJABBAhze/Jdd0lVqkjr19sQAOBqmzZJZctK775rAwBAMEjd+rveuKi8wsqerf8btFqJNgcKG6Ux4EemQF6wJUat/9yg+l4K5OptZ3j+jE6kQAZQnNq3l8LCpLFjbQAACAkffeQMxVu+3AYAgICWuFL9Hz9DpUrV0e2fRWifjYGiQGkMFBJTIM/fEqP3Rm/Q6R/lLpBrtJuhV4at0aS1+5V6mAIZQBEZPVoqUcIpDgAAoSUhQTrjDOnGG527TgAAgSt1lya2v0Enlaqiq1qM0RaWMUYRozQGioApkOdFxqjV6A06reOsXAVyzXYz9OqwNZq8LpoCGUDhWbtWOuEE6d57KQsAIFSNGZN2Fph2GjhkiA0AAIEnTkv7PaYG4RV0wfM/aw1rUqAYUBoDRcwUyHMjD6rlH+t16lEK5NeGr9UUCmQA/hQbK513ntSwIUOQACDU3XOPVKeOFBNjAwBA4EjWxpGv69LK4TrjkV5ayK4axYTSGChGpkCes/mgWvyxXqd8mLtArvXBDP1vxFpNXU+BDKCAHnlEqlhRWrHCBgCAkLVhg1SmjNSypQ0AAIEhVdvHtdEN1cNV9/bOmr7XxkAxoDQGAkR6gdz8d+8Fcu32M/X6iLWatj5ahymQAfiiSxfnVuQRI2wAAAh5HTpIpUpJK1faAABQvFIVNflj3VYnXNWve19/b2cRYxQvSmMgAJkCefbmg3r3t/Wq56VArtN+pt4YuVbTNxygQAZwbBMmOJPy33vPBgAApImPl04/Xbr5Zta5B4Bil6pdUz/VHSeH64TL39Sojck2z4tkrf3pZd3Z4g9xYTL8idIYCHCmFJ616aDe+W2dTu4w02uB/ObIdYqgQAaQ0+bNUrVq0q23ph2HcqUCACCHP/5w7kQZNswGAICiZ64w/kS3n1xKlRu9oqFrfZh6F7dJk79ppkuq1teLI3bbEMVh3yFfiv7gQGkMBBFTCs/cdEBvj1qnul4KZJO9lfbYjI0UyEDIS0iQLrlEOu00aS/XHAAAvDBXGN95p3Tyyc7AVABAEUvV9n866JY6pfSfUnV143Ot9P777x97a91Kzd96Tc8/fqeuqH+CwsL+o/Cz39Rf0fZHolCZO8M37InXiMW71XbMRt3Zd6lnHtWpHWfZZ7gHpTEQpEwpbMphUxKbq41zFsjmqmRTLpuSmQIZCEHPPCOVKyctXGgDAAC8WLdOCg+XWre2AQCgaCRr4x+tdH2NUvrPf/5TgC1cF703SXz1538pqUe0bMchDZob5bn7+8avF+nE1tNz9S9mM0uLug2lMeACphQ2y1OYZSrMwDxvOy+zgzPLXJhvxQC43LffOrcbDxxoAwAAjqFdO6l0aWn1ahsAAApXnFb+8oouqxKWowDOx1b2CnWYFW9/LvIrIfmw5kYeVJ8Z2z3dYuMeC1S2xdRc/UrW7fSPZmf8tblwz20ojQGXMQWyGZBnBuV5K5BP+XCWZ8CeGbRHgQy4UESEc+L/+us2AADgOOLipFNPlW67jaF4AFAUYobruRp+KIz/E6YKN3XRYh+WQYZ0ID5FU9ZFq8fkrXp68Eqd/9lclXwne3eSdQtLe+y8tOeY55rXTE57bXTazzDM35vnmDvA3YbSGHAxUyBPWx+t10es9ayxk3WnZzaz5k7z39drDgUy4A47dki1a0vXXislu28QAwCgEI0a5dylMnKkDQAACH47DyZp7Mq9+mT8Zj30/XLV/zjz6mBvm7m6+PLuC/TSr2s8Vx2bviQ+6ehDxb+c4pTGpnNxG0pjIESkHj6iqeuj9b8Ra1WznfcCucUf6z23Y1AgA0HIlMTXXCPVqZN2ZLTThgAA5JE5/mvSRDrlFOfKYwAAgkjOAXV39HEG1OXsPrJuJ7Serhu+XuSZB2XWLTbrF5t1jH3Rc+o2z8+q0Y7SOGBRGgN5ZwpkcyvGa8PXenZsWXeaZjut4yy1/GO95kXGUCADweK115xBRjPdd1sUAKCIrEk7lzJLHLVtawMAAAJPzgF1pvg1BXDObiPrZgpkUyS3GbNRwxft9hTM/ug7vpnmlMbV21IaByxKYyB/TIFs1uN5ddgarwWyWdi91egNmr+FAhkIWD/+6NxS3KuXDQAAyKf333e+hFy71gYAABQfszSEWSLClwF1ZgkKsxRFp/Gb9deKvdpxoPAWff52ulMan9QmwibuQWkMIIMpkCet3a9Xhq3xfEuWdadrNrPjfW/0Bi2gQAYCx4IFUtmyUrNmNgAAoAAOHZLq1ZPuuIOheACAImWGy5mL2vI6oM48Zp7jbUBdUekdsd3zu1R5n9I4YFEaA/5lbveYuGa/5z1VrW1Eth2z2UyB3PrPDVq4lQIZKDZ79jjT7i+7TEpIsCEAAAU0fLhzB8vvv9sAAAD/MgPqzFXA5mrgvA6oM1cZm44iLwPqikrftN/F/H5meQy3oTQGcFymQP53zX7P9FBzy0XWHbfZzkjbub//5wYt2hZLgQwUldS0A6Sbb5aqV5ciI20IAIAfmOO5W26RTjtNio+3IQAAvjMdgVk/2KwjbNYT9mVAnVmvOL8D6opKv5k7PL9z5fcojQMWpTFQNMyOesLq/Xpx6GqvBXKDTrM9HwSLKZCBwtWypVSypDRxog0AAPCjVaucoXjt29sAAIBjyzqg7u1Rvg2oaztmo0Ys9t+AuqLSf5ZTGldsNc0m7kFpDCDfklMPa/zqfXph6GpV9VIgn9lpjmfHv2Q7BTLgV8OGObcNd+1qAwAACkGrVlKZMtL69TYAAMCRdUCduSv58u6+Dagbu3KvZ4mKYPf97J2ef7fyLSmNAxalMVC8TIH8z6p9en7Ias8C8Fk/GMzW8JM5avfXRi2lQAYKZvlyqWJF6dFHbQAAQCGJjZXq1pXuvtsGAIBQlHNA3Xk+DqibkvbaA0U8oK6o/DjHKY1NYe42lMYA/M4UyONW7dNzv3gvkM/6ZI4+GLvRc9sKBTLggwMHpDPPlM4/35luDwBAYRs61Lm75c8/bQAAcLMdBxKzDag7/aPgHFBXVMxSHOa/Q5nmlMYBi9IYCExJKYf198p9avbLKq8F8tmfzlH7sZu0fAcFGHBM5guWe+6RTjxRWrfOhgAAFDLz+fPf/0r160sJCTYEAAQ7cwHX+nwMqLsxSAbUFZWf5jmlcel3KY0DFqUxEPhMgWzWLXr251U60cti+Od2nqsOf2/Sip0UyEAuHTtKJUpIY8bYAACAIrJihVSqlPNZBAAIOqbYNUtFDpy706cBdXf2Dd4BdUXl5/lOaWyW5HAbSmMAxcIUyOaWl2d+XuX1w8qskfTh35u0MooCGfAUxaYw/vBDGwAAUMSaN5fKlpU2brQBACAQmaUhZm8+qN4Rvg2oe/iH5frERQPqisqQBbs8/w1LpG1uQ2kMoNglphzWmOV79X+DvRfIZgH9juM2aVVUnH0FEELMUhRmSQozhIhv9gEAxSUmRqpdW7rvPhsAAIpb+oC67pO36KmffBtQ98UUdw+oKyq/LnRKY7O5DaUxgIBiCuQ/l+/1fIhVfi93gXxBl3n6aNxmrd5FgYwQYIbdmaF3ZvidGYIHAEBx+vnntDPItFPIsWNtAAAoKukD6j7+Z7MeHODbgLq+M7ZrbmRoDagrKsMW7c74b+625TsojQEELFMgj162x/ONaSUvBfKFXeZ5PjDXUCDDrZo2lSpUkJYvtwEAAMXInAzfcIPUoEHagVqiDQEA/pRzQN3tfZaoZru8D6gzg9nMoPlQH1BXVMx6z+n/P6QepjQOSJTGgLslJB/WH8v26MmjFMgXfT5PncZTIMNFunVzruYaNswGAAAEgGXLpJIlpU6dbAAAyK+cA+qu77nI6x23Wbfa7WdmG1C3cS8D6orTqCWZpXFy6mGbugOlMYCgYwrk35fu0RODVqpiq2kZO+j07eLP53kW8F+7mwIZQWrSJOeEvGVLGwAAEEDeflsqV07avNkGAIDj8TagrkzzYw+oO4MBdQHPdBPp/3+Zgf9uQmkMIKiZD97f0nbSjw9c4bVAbtR1vj6dEKl1u+PtK4AAt2WLVL26dPPNUiprjgEAApBZZ79mTenBB20AAMjKDKibtHZ/tgF1YccZUGfm95jh8AyoCy7mjuj0/x/NBW5uQmkMwDVMgWxuDXls4ApV8FIgX9JtvjpPiPSsDwUEpIQE6bLLpFNPlfbssSEAAAFo0CBnGaV//rEBAIQmM6BuzHLfBtRd0WOBXhnGgDo3MIP80/+/jXPZ/4+UxgBcyXzojlyyW01/PHqB/Nm/kdpAgYxA0qyZVLasNH++DQAACFBm/cxrr5UaNmQoHoCQkD6gbtii3Xr/zw0+Dah797f1DKhzqb9WZJbGsYmUxgGJ0hjA0Zhv+8yAgEd/XKHyLXMXyJd2m68u/0Z6BggAxaZ3b+eKrR9+sAEAAAFu8WIpLEzq3NkGAOAOWQfUveXjgLp2f230XMDEgLrQ8PfKfRl/BmIS3LWkCKUxgJBiCuThi3brkR+8F8iXdZ+vzydu0aZ9CfYVQBGYOVMKD5defdUGAAAEiTfekMqXd9bkB4AgZM4Rsw6oM+eEvgyoM6VhVAwD6kLVuFWZpbHb1qGmNAYQsg4lpnpuLTIf9uW8FMhmmm3XiVu0mQIZhWnnTqlOHenqq6XkZBsCABAkoqOlGjWkRx6xAQAErv1xydkG1J3b2bcBdVPXM6AO2Y1fnVkamz9fbkJpDABpTIH868Jdeuh77wVy4x4L1G0SBTL8zJTEZj3I2rWlHTtsCABAkDFLK5klliZMsAEAFC+zLMT2HAPqTus4K9d5XtbNnAfmHFCXkHzY/kTAu3/X7M/4M7T3EKVxQKI0BuAvZvH6oQt3eQ4szGTb9A+A9M0cSJhvpiP3UyCjgMwtvaVLSxERNgAAIAgdPixddZV09tlSErdoAyhahw8f0brdvg2oO7H1dN30zWIG1KHAzJXr6X+u9sRSGgckSmMAhcEUyEMW7NIDRymQr/xigXpM3qotFMjw1aBBzlVZ33xjAwAAgtjChc5QvM8/twEA+F9y6mEt2R6rH+f4NqDuru8YUIfCMXlddMaftV0uW9ua0hgA8shMQv1lwS7d33+Z18EIV32x0LPO1dboRPsK4CjMiXW5ctIzz9gAAAAXeO01qUIFads2GwBA/qUPqOsVsV0vDl2d5wF1Zuj5pxMiGVCHImHWuU7/87fzIKVxQKI0BlCUDiak6Of5UbrvKAXy1V8u1JdTtmobBTJy2rtXOu006ZJLpASuUAcAuMj+/VK1atJjj9kAAPImfUCdmSPzpI8D6sx5FwPqUFymbziQ8efSrKPtJpTGAFBApkAePC9K9/ZbpnAvBfI1Xy3UV1MpkJHGrPl4663SSSdJmzfbEAAAF+nf31l+adIkGwBAppwD6swygL4MqPtu5g7Ni4xhQB0CxoyNmaWx2875KY0BwI/Mt9tmkMI9XgrkEmnbtV8tVM+p21z3DSTyqHVrqWRJpssDANzLfEF6xRXSuedKye4aCATANzkH1DXpvUQ1fBxQt2InA+oQ2GZuyiyN3TbriNIYAAqJKZAHzT16gXxdz0X6eto27aBADg0jRjhXXnXpYgMAAFxq3jypRAmpe3cbAHA7bwPqKh1nQF2dHAPqNu1LYEAdgo5Zdzv9z/TmtD/DbkJpDABFIDo+RQPn7tTdaQdFpd/NXSCbg6pvpm1z3cL5sFaulCpWlB5+2AYAALjcyy9LlSpJO3bYAIBbmAF1szb5NqCuQScG1MGd5kZmlsYb98bb1B0ojQGgiJkC2XwDb75V91Yg3/D1In07nQLZNQ4elBo2lM47T4qNtSEAAC5nBr9WrSo9+aQNAAQjM6Bu4hrfBtRd2GWenvmZAXUIDfO3xGT8+d+wh9I4IFEaAwhG5iDshzk7dWffpSr1bvYDLnMwduPXizzf4PNNfJAyt9fdd590wgnSGj6fAAAhpm9fZ2mmqVNtACBQpQ+o+3P5Xn00zrcBda8yoA4hbOHWzNLYrOHtJpTGABAg9h1K1vezd+qOPt4LZDMQonfEdu2iQA4eH3/srOk4erQNAAAIIamp0mWXSRdcIKVwpSEQKNIH1P26cJda+zigrvnv6zWYAXVAhkXbYjPeJ2t2xdnUHSiNASAAmQJ5wOwdur3PEq8Fstnn9ZmxXbtjKZAD1tixUliY1L69DQAACEFz5jhfoH75pQ0AFKWsA+reHLnOM4w7rwPqPhi7UaMYUAcck3l/pb93VkVRGgckSmMAbrX3ULL6z9rhuQLArBGW/oFkNlMg35y2/+tLgRxY1q+XqlSR7rrLWaICAIBQ9sILUuXK0s6dNgBQGLIOqHth6Gpd2s23AXXjVu3jrkbAR8t2HMp4P5kr8N2E0hgAgsie2GT1m7lDt3kpkM3f39JrsWc9MfM8FJO4OOnCC6UGDaToaBsCABDC9uxxvkz9v/+zAYCCyjmg7pxPjz2gzty9mHVA3bT10TqYwLIxQEGZojj9fbZ8B6VxQKI0BhBqTDFsCuJbe3kvkE1uCmZzpTKK0OOPSxUqSEuX2gAAAKhXr7Szz7TTz4gIGwDIC7MsxLbo7APqTs3DgLorv2BAHVAUVkZllsZLt8fa1B0ojQHABczSFGaJCnOlcc4rDEyBbK5MNktcUCAXsh49nBPioUNtAAAAPMxQvEsukS66iKF4wFGYAXVrd8f5PKDO9CFZB9Slpv0cAEVj9a64jPfj4m2UxgGJ0hgAHGYdMjMkz6x1nLNANrelmYNPM2TPDNuDH02eLJUqJb37rg0AAEA2M2c6X65+/bUNgNCVPqDuBx8H1N3NgDogoJgvetLfowu3xtjUHSiNAcDFTIHcO2K7Zx/prUC+vc8SfT97p2dNNBTA1q1SjRrSTTc5V1IBAADvmjWTTjgh7SBllw0A90sfUPft9G0+D6jrzIA6IKCt3xOf8b5dsIXSOCBRGgPAsUWlHWiaSco3feO9QL6jz1LPlQ4UyD5KTJQaN5bq1ZN277YhAADwypTFJ57olMeAC6UPqOs6cYueGOTbgLqvpjKgDgg2G7KUxmb9cDehNAaAELTzYJLnSocbv16kEvYDLn0r/e5U3dl3qX6cs1PR8RywHtcLL0hlykjz5tkAAAAck1mewixTYZarAIJUzgF19/df5tOAOjOwev4WBtQBwc4sE5P+Hp+z+aBN3YHSGABCnCmQv5m2TTccpUC+67ulGjiXAtmrvn2dk94BA2wAAACOywzCMwPxzGA8lnVCEPA2oK5622MPqKvyfoSnp0gfULcyigF1gBtF7s8sjc0yNG5CaQwAyLDjQKK+nrZN1/f0XiCbwRuD5kbpAAWyNHu2FB4uvfyyDQAAQJ5FRDhfvPbqZQMgMJgBdYu3+Tagrm6H7APqNjOgDggZW6MTM/YFMzcdsKk7UBoDALzafiBRPadu8xwo5yyQw5tP1T39lumneVGhueZaVJRUt6505ZVSEkNJAADIl//7P6lKFWnPHhsARetQYqqn5Mk6oM4c52Y97s25mQF1j/7IgDoADrNMTfr+IWIDpXFAojQGgMJjPgjNYI5rv1qY8YGYvpkD63v7LfPcdhcSBbK5pfb666WaNaXt220IAAB8Zr6ErVzZmQ8AFLJ9h5L1bz4G1D3LgDoAx2Du1k3fb5j9hJtQGgMAfGJuv/lyylZd46VALtN8qu7rv0w/z49SjFsPqt96SypdWpo2zQYAACDfvvxSKlFCmjPHBkDBZB1Q13HcJp8G1L02fC0D6gD4JComKWNfMmUdpXFAojQGgKJnCuQvpmzV1V96L5DNQfovC3a5p0AePNhZf7FnTxsAAIACMXfwXHCBdNllDMWDz7IOqHtv9Abd5uOAOnOhAwPqABTE7tjM0ngypXFgojQGgOK1ZX+Cp0C+6ovcBXLZFlP1wIDlGrJgl2ITg/SEcPFiqVw56emnbQAAAPxi6lTnS9m+fW0A5JZ1QN0bI9d6lk3zZUDdb0v3MKAOgN/tiU3O2OdMXLPfpu5AaQwA8DtTIPeYvNVzm1/6B2j6ZgrkBwcs19CFQVQg79snnX661KiRFB9vQwAA4DdPPilVrSrt3WsDhLKcA+ouycOAujM7zckYUPcPA+oAFBGzXnr6fmjCakrjgERpDACBKXJ/grpP3qIreuQukM36cQ99v9xzS6E5OQhIhw9LTZo4J7KbNtkQAAD41Y4dUqVK0ssv2wChIueAurM/nXPcAXUXfc6AOgCBITo+JWP/ZL6wchNKYwBAkTG3BHabtEWNj1IgP/zDcg1btDuwCuQ2baSwMOmff2wAAAAKRffuzlC8efNsADdJH1A3etmePA+oK592fGiWPss6oC4xhQF1AAKH+dIqfZ81jtI4MFEaA0Bw2bQvwXNFyeXdcxfI5gThkR9WaPii3YpLKsYCedQo5+T1009tAAAACk1ysnTeedIVVzh3+iBopQ+oM8uR+TKg7ua08/oWfzCgDkDwMEPf0/djY1e6a4klSmMAQLHbuDden0/cosu6z8/4wE3fTIFs1qcbsbiIC+RVq5zbZB980AYAAKDQTZ6cdpaadprav78NEOgKMqCu/dhNDKgDENTMXbLp+7YxyymNAxKlMQC4w4Y98eryb6Qu7Za7QK7Qapqa/rhCI5fsVnxhFsgxMdLZZ0vnnOP8NQAAKDqPPSZVq+YMokVAyTqg7vkhvg2o+yzt+M6s97k7lgF1ANzDnJem7+/M8jtuQmkMAAhY6/fEe04wzAlJ+gdx+mYK5McGrtAofxfI5iqXBx6QKleWVq+2IQAAKDLbtkkVK0qvvWYDFIesA+oeTzvm8nVA3fQNBzy3bQOAm5l11tP3g39QGgcmSmMAcLd1u+PVeUKkGnXNXSBXbDXNczJjbm9MSC7gGoiffOKsY/z77zYAAABF7vPPnUG0CxfaAIXFLAuxNceAulM+9G1A3QIG1AEIUUlZSmNzPuomlMYAgKBjCuRPJ0Tq4s/nZXxAp2+mQH5i0Er9np8Cedw45wS1bVsbAACAYpGU5CwVddVVDMXzIzOgbs2u7APqqrWNyHU8lXWr2ib7gLpVUXEMqAMAKyX1SMb+0iyj6CaUxgCAoGYmc38yfrPndsj0D+v0zQxhefKnlZ7bhI5bIG/cKFWtKt1+OyenAAAEgn//TTtjTTtl/eEHG8AX5uq3Rdti9f3szAF15sv1nMdLWbeTO8zUPf2WMaAOAPLIfBmXvg8dvojSOCBRGgMAzJUzncZv1oVdvBfIT9kCOdftk/Hx0kUXSWecIe3fb0MAAFDsHnlEql5dio62AbxJH1D3zTTfBtSZAcMMqAOA/DNfrKXvV4dRGgcmSmMAQFard8Xp43826wIvBXLl96br6cErPWv3eQrkJ5+UypeXliyxrwYAAAFhyxbnM/qNN2wAbwPqSuQ41sm6pQ+oa/bLKvWcuo0BdQDgZ+n7W7P0j5tQGgMAXM+svffRuM06/7O5GR/o6Vurm9/03Pq64PO+DHABACAQde7szBxYvNgGoSHngLr7fBxQ138WA+oAoCiEvePsg39ZQGkckCiNAQB5sTLqkOfE67zP5ur6h79SSomS+qLRw57PkBNaT9czP6/SmOV7PesAAgCAAGCG4jVsKF17rWlSbeguOQfU3drLtwF1pqhgQB0AFA9zR4fZLw+eF2UTd6A0BgCEpm3blFKthjZdcIXO/3hmtpMws53Yerqe/XmV/lpBgQwAQLH75x/PnUEaNMgGwcsfA+oi9zOgDgACRfoa8j9RGgcmSmMAQJ6ZK5auuEI6+WRpl3ML0fIdhzwnYmZdwKwnaWYzBbJZB3DsSgpkAACKzYMPSjVrSgcO2CDwmQF1Mzb6NqCu4ScMqAOAYFLG7tcHzt1pE3egNAYAhJ6XXkr7ZC8jzZljg0zmqp1lOw7pg7EbdVbaSVvWkzizVXk/Qs/9slp/r9yn5FQKZAAAikxkpFSunPT22zYILHsPJWvC6v363IcBdRczoA4Agl65ls7dIj/MoTQOSJTGAIA86dfPub3V/O9xmAJ56fbYoxbIZi1Bc9XQuFUUyAAAFIlOnaSSJaWlS21Q9LIOqPvwb98G1P1vBAPqAMBtKtglhgbM3mETd6A0BgCEDnNlsbnC+MUXbZB35gRxyfZYtftro+e20awngmYzBfILQ1d7biOlQAYAoJAkJkoNGkjXX18kQ/GyDqhr5eOAupYMqAOAkFDpveme/b/5UtBNKI0BAKHBrF1s1jA2axmbNY0LwBTIi7fFqu2YjTqzU+4C+aS0k8UXh67W+NX7lJLKSSIAAH41dqxz19DPP9vAP3IOqLvGxwF1vzOgDgBCUmVbGn83k9I4IFEaAwCOKiVFuvFGqUYNads2G/qHOTE0J5htxmxUg06zs51Ims1cjfRS2meTWeOQAhkAAD+57z6pdm3p4EEb+CbngLpGXY89oM6sTZx1QJ35YpgBdQAAwwxON58VfWZst4k7UBoDANzvnXekUqWkqVNtUDhMgbxwa4ze/3ODzvjYe4FsPqf+XUOBDABAgWzaJJUtKzVvboOj83VAXel3pzKgDgCQZ2ZZIvP50SuC0jggURoDALz65RfnFtYvvrBB0TAFshly0/rPDarvpUCu3naGXhm2RhPX7GedQwAA8qNjR+dL4RUrPH9rPnvNgLo/fBhQZ4YXXf0lA+oAAPmXvtb9t9P9e1drcaM0BgC415IlUvny0pNP2qB4mJPY+Wknoe+N3qDTP8pdINdoN0OvDlujSWspkAEAyAszoG5t5D7F1j1V6y+4UremnQ/mZUDdLb0YUAcA8C9zPmc+Z76eRmkckCiNAQDZ7N8v1a8vXXSRFBdnw+JnCuR5kTGeCeyndcx99VPNtAOO14av1eR10ZzIAgCQJuuAutdHZB9Qd/e9n3ruKGp6R/tsn6dmQN29/Zapw98MqAMAFC5zDmc+e76autUm7kBpDABwn8OHpTvukKpUkTZutGHgMSevcyMPeq54OvUoBbK5XXYKBTIAIERkHVD33C95G1A36axrtO/EGurx50rPgLo9scn2pwEAUPhqt5/p+Uz6YgqlcUCiNAYAZGjXTgoLk8aNs0HgMwXynM0H1eKP9V7XX6z1wQzP1VVT11MgAwDcIeeAurM+yfuAOnMLcET6gLoNG6QyZaRWrexPBgCg6NTt4JTGPSZTGgckSmMAgMfvv0slSkidOtkg+JgCefbmg2r++3rV81Igm2+y3xi5VtPWR3vWdAQAIJCZz7Ut+xOyDajz9vmWdcs5oG7h1uMMqGvf3hmKt2qVDQAAKBrpn2ndJm2xiTtQGgMA3GP1aqlyZen++80Zqg2DmznRnrXpoN79zXuBXKf9TL05cp2mbzhAgQwAKHbms2j1rjgNWbDLs37/rb2WHHdA3Uk5BtSZ1/t8V018vHTaadItt7jmGAAAEBzS7xQ1d864CaUxAMAdYmOlc86RzjpLiomxobuYE/GZmw7ond/WeQb8ZD3hNpu5LeqtUes8t+tSIAMAClv6gLoBs3fkGlB3tM18AVpoA+rM3Ub/STvFHT7cBgAAFL70Aeef/RtpE3egNAYAuMNDD0mVKoXMbammFDaDgt4etS5jDa2sm8nMY+Y5FMgAgIKKtQPqzFrC6QPqzBrDOT9/0jezNnHDT+bosYEr1CXtJLpIBtSZ8tkMwq1XTzp0yIYAABSu+h/P9nz2dZ5AaRyQKI0BIIR17uysYzxqlA1CiymFzdXF5ipjs1xF1pN2s5mrks3VyeYqZQpkAMDxZB1QZ0rfvA6oM2Vy+oA6UzIXi3XrpPBw6f33bQAAQOFq0MkpjT8Zv9km7kBpDAAIbuPHSyVLcnJomVLYrG9s1jk2A/OyntSbzdwWbNZHNusk++12YABAUMo5oM4sG+HLgDqzLIUZUGeWqQgobdtKpUtLazg3BAAUvjM7zfF8Rn78D6VxQKI0BoAQtGmTVLWq1KSJaUttiHSmQJ62PlpvjFzrtUA2AxtMgTx7MwUyALid+UzIOaDODKDL+dmQdcs6oM68Ll8D6opDXJx0yinO8QGfbwCAQmbuyDGfmx3HpZ2fugilMQAgOJkp6Y0aSaefLu3bZ0McjTnJn7o+2jOoqNYHM7KVAmY7teMsNf99veZQIANA0DNX/porgLMOqDNXCOfc92fdcg6oM1cgB/XnwciRaWe7aae7Ibp0FQCg6Jzz6VzPZ6n5DHUTSmMAQHB6+mmpXDlp0SIbIK9MgTxlXbTn1uKa7bwXyC3+WK+5kRTIABDozNrBZg1hXwbUmSuiinRAXXEwn1+33eZccWyuPAYAoJCc95lTGrcfS2kckCiNASCE9OzpXD00eLANkF+mQJ68LlqvDV+rGl4K5NM6zvLcljwvMoYCGQCKmSl3Tclryt68DqgzJXJADKgrDmZNY7O2cbt2NgAAwP/Ot6Vxu7822sQdKI0BAMFl+nTnBPDNN20AfzEF8qS1+/XqsDVeC+TTP5rtWQdz/hYKZAAoTGYfmz6gztzq6suAOrMcRcAOqCsOrVtL4eHSunU2AADAvy7sMs/zWdxmDKVxQKI0BoAQsH27VKuWdP31UkqKDVEY0gvkV4atUfW2uQvk+h/P1nujN2jzvgT7CgBAfuQcUGcGz+V1QJ15flANqCsOhw5JJ58s3XknQ/EAAIXi4s+d0rj1nxts4g6UxgCA4JCUJF11lVS3rhQVZUMUhZTUI5q4Zr/nM7Za2+xFRt8Z2+2zAADHk3NAnbky2JcBdebK46AfUFcchg1zlrX64w8bAADgP5d0m+/5zDYX1bgJpTEAIDi88opze+msWTZAcTAF8r9r9meUGZTGAOBdQQfUTVi9350D6oqDKdlvvlk67TQpPt6GAAD4x6W2NDazYNyE0hgAEPgGDHCuEOrTxwYobie0nu753KU0BgAG1AWFlSulUqWkDh1sAACAf1zefYHn873575TGAYnSGABcat48qUwZ6fnnbYBAQGkMIBSlD6j7falvA+qu+YoBdQGhZUvnmGKDu24fBgAUryt6OKXxO7+5a+gqpTEAIHDt3i3Vqyc1biwlJtoQgYDSGIDbpQ+o+2XBLs/tpnkdUHdrryUMqAtUMTFSnTrSPffYAACAgrvqi4We44C3R1EaByRKYwBwmdRU6aabpBo1pK1bbYhAQWkMwE2yDqj7nw8D6u7rv0wfMqAuuAwZ4ix5NWaMDQAAKBhz3GCODd4cSWkckCiNAcBlmjd31h6cPNkGCCSUxgCCVdYBdc1+WaWLP5+X5wF1n0/cwoC6YGeKffOldP36UkKCDQEAyL9rv3JKY7MUlZtQGgMAAs/Qoc5VQN272wCBhtIYQDDIOaCuoQ8D6r6Ztk0zNjKgzpWWL3e+mP7oIxsAAJB/1/dc5DmOeG04pXFAojQGAJdYulSqUEF6/HEbIBBRGgMIJGZZiMgCDqhbtC2WAXWhxNzRVLastGmTDQAAyJ8bv3ZK41eHuauTpDQGAASO6GipQQPpggukuDgbIhBRGgMoLmaw3Koo3wbUVWubfUDdml1xnkF3CGFmKF7t2tL999sAAID8uekbd3aSlMYAgMBg1hi86y6pShVp/XobIlBRGgMoCukD6vrPyvuAulMYUIe8+vlnZzmsv/+2AQAAvrvZdpIvDl1tE3egNAYABIb27aWwMGnsWBsgkFEaA/C39AF1PafmfUDd2Z/O0eNZBtTtPcSAOvjAfJlwww3OXU6JiTYEAMA35m4mc2zy/BBK44BEaQwAQWz0aKlECQbSBBFKYwAFkXVAXdMf8z6gzpyMMaAOfrVsmVSypNSpkw0AAPBNk95OaWwG6boJpTEAoHitXSudcIJ0333OFT8ICpTGAPIi54C6e/ot08kdZmaUwd62inZA3Rsj1+r72TsZUIfC9/bbUrly0ubNNgAAIO9u7+OUxs/+vMom7kBpDAAoPrGx0nnnSQ0bSgcP2hDBgNIYQE4FHVA3dCED6lBMDhyQataUHnzQBgAA5N2dfZd6jmv+bzClcUCiNAaAIPTII1LFitKKFTZAsKA0BrB8x6ECDajbGp3IgDoEjkGD0s6O006P//nHBgAA5M3d3zml8VM/rbSJO1AaAwCKR5cuzsnZiBE2QDChNAZw5RcLMgrhrBsD6hCUzBcY117r3P3EUDwAgA/u7bfMcwz0JKVxYKI0BoAgMmGCM3TmvfdsgGBDaQzAXF2cXhQzoA6usHixFBYmde5sAwAAjs/cSWWOh8wX5m5CaQwAKFpmyEy1atKtt0qpFAvBitIYwLVfOaXx6yPW2gRwgTfekMqXl7ZssQEAAMf2wIDlnmOipj9SGgckSmMACAIJCdIll0innSbt3WtDBCNKYwDX91zk2Q+YNY0B14iOlmrUcOYuAACQBw9975TGj/xAaRyQKI0BIAg884xUrpy0cKENEKwojQHc+LVTGr86jONvuMwPPzhzF8xyWgAAHIcpi80x0cM/LLeJO1AaAwCKxrffOidgAwfaAMGM0hjATd9w/A2XOnxYuuoq6eyzpaQkGwIA4N2jPzql8YMDKI0DEqUxAASwiAipdGnp9ddtgGBHaQzgZnv8/eLQ1TYBXMTcFWWG4n3+uQ0AAPDusYFOaXx//2U2cQdKYwBA4dqxQ6pdW7r2Wik52YYIdpTGAG7ttcSzH3iB0hhu9dprUoUK0rZtNgAAILcnBq30HBPd24/SOCBRGgNAADIl8TXXSHXqSDt32hBuQGkMoElvpzR+7hdKY7jU/v1StWrSY4/ZAACA3J76ySmN76E0DkyUxgAQgMwVOuHh0syZNoBbUBoDuL2PUxo/+/MqmwAu1L+/M5Nh0iQbAACQ3dODndL4ru+W2sQdKI0BAIXjxx+dk6xevWwAN6E0BnBn36We/cD/DaY0houZoXhXXCGdey7LbAEAvHrm51WeY6I7+lAaByRKYwAIIPPnS2XLSs2a2QBuQ2kM4O7vnNLYXF0DuNq8eVKJElL37jYAACBTs1+c0tgs3eUmlMYAAP/as0c65RTpssukhAQbwm0ojQGYYS9mP/DkT5TGCAEvvyxVquQM+AUAIIvnh6z2HBPdRmkcmCiNASAApKZKN98sVa8uRUbaEG5EaQzgvv5Oafz4wBU2AVxs716palXpySdtAACA48WhTml8S6/FNnEHSmMAgP+0bCmVLClNnGgDuBWlMYAHBiz37Aea/khpjBDRt68zr2HqVBsAACC99OsazzGR6SbdhNIYAOAfw4Y5J1Jdu9oAbkZpDOCh753S+FFKY4QKc0eVWX7rgguklBQbAgBC3SvDnNL4xq8X2cQdKI0BAAW3fLlUsaLUtKkN4HaUxgAe+WGFZz/w8A9pnwFAqJgzxxmK9+WXNgAAhLrXhq/1HBPdQGkcmCiNAaCYHDggnXmmdP750qFDNoTbURoDMFcYm/3AgwMojRFiXnhBqlxZ2rnTBgCAUPb6CKc0vq4npXFAojQGgGJw5Ih0zz3SiSdK69bZEKGA0hjAYwOd0vj+/stsAoSIPXukKlWk//s/GwAAQtkbI53S+JqvFtrEHSiNAQD59+GHzi2aY8bYAKGC0hjAE4NWevYD91EaIxT16uXMcoiIsAEAIFS9NWqd55joqi8ojQMSpTEAFDFTFJvC2BTHCDmUxgCe+skpje/pR2mMEGSG4l1yiXTRRQzFA4AQ985vTml85RcLbOIOlMYAAN+ZpSjMkhRmaQqzRAVCDqUxgKcHO6XxXd8ttQkQYmbOdK42/vprGwAAQlHz39d7joka96A0DkiUxgBQRMywOzP0zgy/M0PwEJIojQE88/Mqz37gjj6UxghhzZqlfSieIO3aZQMAQKhp8YdTGl/Wfb5N3IHSGADgm6ZNpYoVpeVMyw9llMYAmv3ilMa391liEyAEmbLY3H1lymMAQEhqNXqD55jokm6UxgGJ0hgAikC3bs5tmMOG2QChitIYwPNDVnv2A7f1pjRGiDPLU5jjI7NcBQAg5LT+0ymNL/58nk3cgdIYAJA3EydKJUtKLVvaAKGM0hjAC0Od0viWXottAoQoMwjPDMQzg/HMgDwAQEhpM2aj55joIkrjwERpDACFKDJSqlZNuvlmTobgQWkM4KW0426zHzDH4UDIi4hwrjbu1csGAIBQ0daWxhd0oTQOSJTGAFBIEhKkyy6TTj1V2rPHhgh1lMYAXhnmlMY3fUNpDHj83/9JVapwvAQAIeaDsU5pfN5nc23iDpTGAIBjM4NdypaVFiywAUBpDEB6bfhaz37ghq8X2QQIcVFRUuXK0gsv2AAAEAo6/L3Jc0x0zqeUxgGJ0hgACkHv3s6tlj/+aAPAQWkM4H8jnNL4up6UxkCGL7+USpSQ5syxAQDA7TqOc0rjsz91176f0hgA4J2ZAB4eLr32mg2ATJTGAN4Y6ZTG13y10CYAPEPxLrjAWdqLORAAEBI+GrfZc0zU8BNK44BEaQwAfrRzp1SnjnT11VJysg2BTJTGAN4atc6zH7j6S0pjIJupU507tfr2tQEAwM06jXdK4wadZtvEHSiNAQDZmZL42mul2rWlHTtsCGRHaQzgnd+c0vjKL1jzHsjlySelqlWlvXttAABwq08nRHqOiep/TGkckCiNAcBPXn9dKl1aioiwAZAbpTGAd39b79kPNO5BaQzkYr54r1RJevllGwAA3Oqzf53S+PSPKI0DEqUxAPjBoEHO7ZTffGMDwDtKYwAt/nBK48u6z7cJgGy6d3eG4s2bZwMAgBt1saXxqR1n2cQdKI0BAI6FC6Vy5aRnnrEBcHSUxgBajd7g2Q9c2o3SGPDKLPl13nnSFVdIhw/bEADgNl0nbvEcE9X7kNI4IFEaA0ABmPX2TjtNuuQSKSHBhsDRURoDaP2nUxo36kppDBzV5MnOXVz9+9sAAOA23Sc7pXHdDjNt4g6UxgAQ6syVL7feKlWrJm3ebEPg2CiNAbQZs9GzH7joc269B47pscec46x9+2wAAHCTL6Zs9RwT1WlPaRyQKI0BIJ9at5ZKlpQmTLABcHyUxgDa2tL4gi6UxsAxbdsmVawovfaaDQAAbvKlLY1rfTDDJu5AaQwAoWzECOeWyS5dbADkDaUxgA/GOqXx+Z/NtQmAo/r8cykszJkhAQBwlZ5Tt3mOiWq0ozQOSJTGAOCjlSudq14eftgGQN5RGgPo8Pcmz37g3M6UxsBxJSVJZ58tXXUVQ/EAwGW+meaUxtXaRtjEHSiNASAUHTwoNWzoTPSOjbUhkHeUxgA6jnNK47M/nWMTAMf077/OHV4//GADAIAb9IrY7jkmOqkNpXFAojQGgDw6ckS67z7phBOktWttCPiG0hjAR+M2e/YDDT+hNAby7JFHpOrVpehoGwAAgl1vWxpXeZ/SOCBRGgNAHn38sVSihDR6tA0A31EaA+g03imNz+xEaQzk2ZYtUvny0htv2AAAEOzMOZE5JjLnSG5CaQwARWjRtljtiU22f1cMxo51hrC0b28DIH8ojQF8OiHSsx844+PZNgGQJ507O8djixfbAAAQzPrN3OE5Jqr0HqVxQKI0BhAM/jdirUq+M0W39V7i+WDZe6gIC+T166UqVaS77nKWqAAKgNIYwGf/OqXx6R9RGgM+MUPxzGyJa6/lmAwAXGDAbKc0rthqmk3cgdIYAIqQKY3Nvip9MwVyk95L1H9WIRfIcXHShRdKDRqwhh78gtIYQBdbGp/acZZNAOTZP/+knY2nnY4PGmQDAECw+n72Ts8xUfmWlMYBidIYQDDIWhqHvZNZHput1LtTdHufJZ5vKff5u0B+/HGpQgVp6VIbAAVDaQyg68Qtnv3AKR9SGgP58uCDUs2a0oEDNgAABKMf5zilcdkWU23iDpTGAFCE0kvj63ou0q6YJPWZsd2z//JWIN/RZ6nnG8v9cQUskHv0cK5kGTrUBkDBURoD6D7ZKY1P7jDTJgB8EhkplSsnvf22DQAAwWjQ3CjPMVF4c0rjgERpDCAYZC2NszIFcu+I7brpm9wFcul3p+rOvkv1w5x8FMiTJ0ulSknNm9sA8A9KYwBfTNnq2Q/UaU9pDORbp05SyZLcDQYAQWzwPKc0NufubkJpDABF6GilcVZRMUnqFbFdN369SCXSnmuen76ZD6G7vlvquf0lOj7FvuIotm6VatSQbrpJSk21IeAflMYAvrSlca0PZtgEgM8SE52ZE9dfz1A8AAhSP893SmMzs8hNKI0BoAjlpTTOaufBJH07fZtuOEqBfPd3SzVw7k4dyFkgmxOQxo2levWk3bttCPgPpTGAnlO3efYDNdtRGgMFMnass5TYzz/bAAAQTIYs2OU5JjLn7G5CaQwARcjX0jirHQcS9c20bbo+7bU5C2SzdtI9/ZZ51lLyFMgvvCCVKSPNm2dfDfgXpTEA85lk9gPV21IaAwV2331S7drSwYM2AAAEi18XOqWx2dyE0hgAilBBSuOsth9I1NdpJ+vm5+QskF+9tbnnapWZ7XroYMJxlrAA8onSGIBZSsnsB05qE2ETAPm2aZNUtixzKAAgCA1ftDvjfPyIi5YaojQGgCLkr9I4K1Mgm1uEr/1qoa5o2ktJYaXU+4J7Pf+cMs2n6r7+yzwL81Mgw58ojQGYAa5mP1DlfUpjwC86dnQGGK9YYQMAQDAYuSSzNE49TGkccCiNAQSDwiiNM0RFKbV2He047xLd0H1OxodW+mYK5Pv7L/Ms0h9DgYwCojQGYN7/Zj9g9gcA/CAhQapf3xlizFA8AAgao7KUxsmph20a/CiNAaAIFVppnJLiTN2uVUva7pR4W6MTPZPtr/5yYcYHWPqWXiD/smAXBTLyhdIYQL+ZOzz7gcrvURoDfvPnn55lxjR0qA0AAIHu96V7Ms61E1MojQMOpTGAYFBopfFbb0mlS0vTvZ+4b9mfoB6Tt+qqL3IXyB/+vck+C8g7SmMAA2Y7pXHFVtNsAsAv7r5bqltXio21AQAgkI1ellkaJyRTGgccSmMAwaBQSuPBg50rUnr2tMGxRe5PUPfJWzI+1CiNkR+UxgC+n73Tsx8o35LSGPCrDRukMmWkVq1sUHzM2pyrouK0fMchmwAAchqzfG/G+XVcUqpNgx+lMQAUIb+XxovSfk65ctLTT9sg7875dK7nd6E0Rn5QGgP4cY5TGpdtMdUmAPymfXtnKN6qVTYofEkph7Vwa4z6z9rhOWY1S5xVaDXN8z5vO2ajfRYAIKe/VmSWxrGJlMYBh9IYQDDwa2m8b590+ulSo0ZSfLwN847SGAVBaQxg0Nwoz37ArJMPwM/Msd1pp0m33FIoQ/FMqRGx4YC+nrZNzX5ZpYs/n6fS7071vKe9bV3+jbSvBADk9PfKfRn7y4MumhlEaQwARchvpfHhw1KTJtJJJ0mb8lf6UhqjICiNAQye55TGpmgCUAh+/91Zgmz4cBvkz57YZI1fvc9T/Db9cYUafjJHJdLeu+b9620z7+lGXefr+SGrM7LeEXzeA8DR/LMqszQ+EE9pHHAojQEEA7+Vxm3aSGFh0vjxNvAdpTEKgtIYwM/zndK45DtTbALAr8wVxnfcIdWrJx06/prCR9Keb2ZXmCn+HdKO7+7tt0wnd5jpeZ8ebTODLK/5aqHeGLnWs075om2xnmUq0n+eeX+b55n3OwDAuwmr92fsV/fHJds0+FEaA0AR8ktpPGqUVKKE1LmzDfKH0hgFQWkMYMiCXZ79gLliEUAhWbdOCg+X3n/fBo70AXW/pL0PW/6xXrf0WqyT2kR43pNH26q1jdCtvZao1egNGrpwl9bsitPhtJ9zNGaYU/pr/1y+16YAgJz+XZNZGu89RGkccCiNAQSDApfGZhhKpUrSgw/aIP8ojVEQlMYAfl3olMZmA1B4Etu004La56j/74s8x5JZB9QdbTvlw1m6r/8yz3HeH8v2aGt0oufKYV/sPJiU8fOmro+2KQAgp0lrM0vj3bFJNg1+lMYAUIQKXBpHRkqPPy7FxNgg/yiNURCUxgCGL9rt2Q+YzdcyCoB36QPqek7N24A6c6X/2Z/O0eMDV+jziVs8t0j76yo3cyVy+j/HLFsBAPBuyrrojP3lrhhK44BDaQwgGPhtTWM/oDRGQVAaAxixOLM0NrfKA/DNocRU3wbUvfGvGrX91zOg7ptp2zRj4wFPyVxY5kXGZPyzN+yJtykAIKdp6zNLY3OXhltQGgNAEaI0hltQGgMYtSSzNE5OdQZnAci7YVmu1s+55RpQtzVGSbfdLp1yihQXZ39C4ZqYZY3OPbHuWaMTAPxt+oYDGfvL7QcSbRr8KI0BoAhRGsMtKI0B/L50j2c/YLakFEpjwFf9Z+3IeA/laUDdmrRz3dKlpXbtbFC4fsvyHk/kPQ4AR2Xu/EjfX5o15N2C0hgAilB6ady4xwKbFB9KYxQEpTGA0csyC6WEZAolwFc9Jm/1vH9qt59pkzxo3VoKD5fWrbNB4Rk4d6fn9yvTfKpNAADezNp0MOOYKHJ/gk2DH6UxAFdJTEzUihUr9Ntvv6lLly56/vnn1bZtW/toppiYGI0aNcrz+FVXXaXGjRuradOmioiIsM8oHOmlsdme/GmlZ5p1cZ1oUxqjICiNAYxZvjfjMy0uqfDWVQXcyhyDmfePGWSXZ4cOSSefLN15p1TIAyi/nrbN8/tVbzvDJgAAb+ZsziyNN++jNA44lMZAaBoyZIjeeOMNNWnSRKeffrrCwsL0n//8J9v21Vdf2WdLycnJnjK5cuXKuZ6Xvt1+++2KjS2cCdFtx2zM+DBJ3yq/N11P/bTSc8VWUd76R2mMgqA0BvDXiszSuDCHcQFu9c5v6zzvH5/vQBs2LO1MPu1U/o8/bFA4Oo3f7Pn9zvh4tk0AAN7MjcwsjTfudc/gUEpjAEHt/fff15tvvqlWrVrphhtuyFUAm23jxo2e527evFkXX3yxJ6tbt64efvhh3XfffQoPD8/1mttuu02pqYVzArwqKk4fjdusC7rMy/hgSd9Mgfz04JX6c/neQi+QKY1REJTGAP5euS/j8ysmIcWmAPLq+SGrPe+fW3ottkkemSuMb75ZOu00Kb7wygmzxrL5/Rp1nW8TAIA387fEZBwTrd9DaRxwKI0BpKSkqH79+tnK3/POO8/z2PLly1WnTh3P1chjx45NO9bOvJ1v69atuvDCC7O9zmzff/+9fUbhWRl1SB3HbdL5nzkFbtbNlHL/N3iV5/bfwhgwRGmMgqA0BvDPqszS+EA8pTHgq0d+WOF5/zw4YLlNfLBypVSqlNShgw3875Vhazy/3w1fF/8AZwAIZAu3ZpbGa3fH2TT4URoDcJVGjRplK35bt26tWbNmqUqVKnr55ZcVF+d9B7527dpsrzPbrbfeah8tGit2HvIUuOd5KZBPbD1dz/y8ynMrsL8KZEpjFASlMYAJq/dnfE7tj0u2KYC8atJ7ief982zaMV6+tGwplSkjbdhgA/96YtBKz+93T79lNgEAeLN4W2zGMdGaXZTGAYfSGIAphHMuNdGnTx/P+sXNmjXLdnWxN5dddlm215r1kXfv3m0fLVrLdxxSh783ZRS7WTdTIJuTi7ErC1YgUxqjICiNAfy7JrM03nuI0hjw1VVfLPS8f94cuc4mPoqJkerUke65xwb+dfd3Sz2/n5m9AQA4uiXbM0tjsxylW1AaA3CN8ePH5yp9a9eurZtvvtmzdMXxvPbaa9leb7Z58+bZR4uPKZDbj93kmayd/kGUvpkCudkvqzzrSian+lYgUxqjICiNAUxam1ka74mlNAZ8lX53Wbu/nPkb+TJkSNpZfdpp/ZgxNvCf63su8vx+rw1faxMAgDfL0s7Z04+JzB3EbkFpDMA1WrRokav0rVevXp6vFn777bdzvT4iIsI+WvzMldLmw+iDsRt11ie5C+Qq70fouV9Wa9yqvBXIlMYoCEpjAFPWRWd8Bu2KSbIpgLyq9+Esz/vn84lbbJIP5k66m26S6teXEhJs6B8Xf+4MbW79Z+EsfwEAbmGK4vRjInPO7haUxgBc49xzz81V+o4YMcI+enxmzeOcr58/PzCnRZsCeen2WM+VKQ29FMhV20R4JnKbIUVHK5ApjVEQlMYApq3PLI13HqQ0BnyV/lnap6CfpcuXO0PxPvrIBv5R/+PZnt/v0wmRNgEAeGOWpEg/JjLn6W5BaQzAFTZt2pSr8L388suPu45xVmbwXc6fER0dbR8NXObf0ayh1HbMRp3ZyXuB/MLQ1Rq/ep9SUjP/e1AaoyAojQFM33Ag47Nm+4FEmwLIC3P8VsK+f4Ys2GXTAnj3XalsWXNQbIOCq9Y2wvP7fTNtm00AAN6s3pVZGpuheG5BaQzAFXr16pWr8J04caJ9NG/q1q2b7fUNGjSwjwQPcwJiPqTajNmoBp2cq0Oybie1idCLQ1d7Jt6nF8yUxsgPSmMAMzZmlsbboimNAV/EJqZmvH/+WrHXpgVw8KBUq5Z0//02KLjw5lM9v9+guVE2AQB4s3Z3Zmm8cGuMTYMfpTEAV7j77ruzFb7mqmFf7NmzJ9vrzda0aVP7aHAyBfKibbF6/88NOsPeXuhtozRGflAaA5i16WDGZ8mW/f5dSxVwO/NFS/r7x1y17xeDB6ed4aed4v/9tw3yLzHlcMbv9/vSPTYFAHizfk98xj5z/hZK44BDaQyEroSEBJUrVy5b4fvHH3/YR/NmcNpBdtbXm22ImUbtEqZANt94mkEm6evTpW+UxsgPSmMAczZnlsab91EaA75YGZU5NMksM+YXacd7euwxacwYG+SfGW6Z/vtNWrvfpgAAbzbuzSyN50VSGgccSmMgdI0bNy5b2Vu5cmVPkeyLe++9N9vPqFatmhIT3XmrrSmQF2yJ0XujN+j0j2ZTGiNfKI0BzI3MLI3NyRKAvJud5UuXTQH4pcu63e68ag4ACoPZj6fvM82X6m5BaQwg6L355pvZCt/HzBUWPti3b59Kly6d7We0aNHCPupupkA+EJ9i/w7IO0pjAKZISj9B2rCH0hjwhRlQnP7+2Xco2aaBw1xgkP77mbU6AQBHF7k/szQ2y3e5BaUxgKBnBtZlLXx/+ukn+0je5ByiV758eW3dutU+CsAbSmMAZtmj9BMkc1UigLwbsXh3xvsnOfWwTQPH5HXRGb9fVEySTQEA3mzNsk69GRTsFpTGAILa2rVrsxW+JUqU8Ay1y6vk5GSddtpp2X5G586d7aMAjobSGMDibbEZJ0hrdnElIuCL72fv9Lx3yrWcZpPA8seyPRnv7/ikVJsCALzZfiCzNI7w13DTAEBpDCCoffnll9kK3yuvvNI+kjf9+vXL9vqGDRsedy3j6JVj9OXrTXTu9R00kwurEKIojQGY4V3pJ0iroiiNAV98OWWr571Ts90MmwSWn+ZFeX6/Uu9O8SxnBgA4uh1ZSuNp66NtGvwojQEEtdtuuy1b6fvxxx/bR47vwIEDqlWrVsZrw8LCNGXKFPtobvtXjFaP125Vg0phnueXbUxpjNBFaQxg2Y5DGSdIK6MO2RRAXnw0brPnvXNmpzk2CRyph4/o9RFrPb9f1TYRNgUAHI1Zxif9mGjKOkrjgENpDISeQ4cOKTw8PKP0NduCBQvso8f31ltvZXvtUQvn+EUa2PxJPfjgA7rlvKoKs8+nNEYoozQGsGJnZmm8fAelMeCLFn+s97x3Lus+3ybFIzHlsGeoZb+ZO/Ta8LW66ouFKt9yWsZ7+7SOs+wzAQBHszs2szSetHa/TYMfpTGAoPXnn39mK31r166d59vnhg8fnu21Dz30kA4fPtoQkhjt2+e0w8kreqhJBa40BiiNAZglKdJPkJZuj7UpgLx4Ke281bx3zHlsUYlJSPHcNv3V1K169udVuujzeZ7lJ9Lfxzm3sHem6O7vltpXAwCOZu+h5Ix958Q1lMYBh9IYCD2vvvpqtuL3ueees48c26xZs1SuXLmM1914442eq5bzJO5vvdWwlOd1lMYIZZTGAFbvyiyNzVA8AHnX9McVnvfO/f2X2cS/dsUkadyqfeo8IVKPpv2zzDIY6e9Xb1t486m6tNt8vTB0tXpFbNesTQcVxwA8AMiTfVlK4wmrKY0DDqUxEFrMFcWnnnpqRvFrtp49e9pHj2727NmqXLlyxmueeOKJ4w6+yyZ+mto0Kut5LaUxQhmlMYC1uzNL40WUxoBP7uiz1PPe+b/Bq2ySP+aYePO+BP22dI8+GLvRc2Vw3Q4zM96b3rZK703XdT0X6c2R6/TjnJ2eoZbJqUe74w4AcDzR8SkZ+9h/Vu2zafCjNAYQlFasWJFR/KZvFStW1JAhQ5SSkmKflSkhIUEdOnTIWAPZDL17//33j7EkxVHEz1D7yymNAUpjAOv3xGecIC3YEmNTAHlxzVcLPe8dM3Aur8yAOjN08uf5UWr++3rPOXCV9yMy3ofethrtZqhJ7yVq/ecGDVu0W+t2x6cd/+ZtOTcAQN4cTMgsjf9eSWkccCiNgdDStWvXbIVx2bJOkWs2cwWyGWo3aNAgDRw40LOMRa1atTIev+uuu7RsWT5vBYyfqQ6NKY0BSmMAG/dmlsbzIimNAV9c0GWe573TZsxGm2SXdUDdq8PW6MovFmQbUOdtM0PrHhiwXB+N26w/l+/V9gOJeZ73AQDIv9jE1Ix98diVe20a/CiNAQSlm266KaMENtvnn3+ucePG6c4778y4mjh9K1GihC6++GK98847mjZtmv0J+URpDHhQGgPYtC8h4wRpzuaDNgWQF6d2nOV573z2b6TnCrX0AXXP/LxKF3Y5/oC6czvP1ZM/rVS3SVs8Q5fMepoAgOJh1oBP30ePWU5pHHAojYHQcfDgQZUq5QyjS9+yXjls1ihevny55s+f7/nfffv8eHsIpTHgQWkMIHJ/Zmk8m9IY8MmJ9nP0eJsZUHdZ9/l6kQF1ABCw4rOUxqOX7bFp8KM0BhB0Ro4cma0wrlu3btHdekdpDHhQGgPYGp2YcYI0c9MBmwI4HnPcWvKd7OWw2dIH1L01igF16ZKTk7V27VqNGTNG27Zts2l2e/bs0bBhw9SnTx/P8nRHex4AFBazpFD6vvz3pZTGAYfSGAgdzz//fLbS+IUXXrCPFAFKY8CD0hiAWS81/QQpYgOlMZBX5kphBtRlMiW6KXonTZrkKX7fffdd3X333WrYsGHG3YVmiPXevZm3fJth1r/88ouuvPJKz1J0Wc8NSpcureeee05RUVH22QBQuMwXfOnHRL9RGgceSmMgNJiDytq1a2c7MDRXHhcZSmPAg9IYwI4spbFZjxVA3pjj2SK7Sy4I/PPPP57it2rVqipfvny24/z07brrrrPPltavX+/5e2/Py7qdc8452YpmACgsqYePZBwTjVyy26bBj9IYQFBZtGhRtoNBc/XBgQNFeHUTpTHgQWkMIComKeMEaSqlMYB8MvNIkpKSPH9triB+5ZVXsh3vm80MvTbmzp2rk046SdWrV1f37t21Zs0axcfHa9asWbrmmmtyve6+++7zvA4ACpO5UyT9mGj4IkrjgENpDISGTz75JNuB4PXXX28fKSKUxoAHpTGA3bGZpfHkdZTGAPzDXHmc9XjfbKtWrdK///6rihUrqlmzZl6vII6Li9MFF1yQ67VbtmyxzwCAwmHuHkk/Jvp14S6bBj9KYwBBxaxblvUgsFOnTvaRIkJpDHhQGgPYeyg54wRp4pr9NgWAgjHrGmc93m/QoIHGjRun8PBwffTRR/ZZ3vXt2zfba83WrVs3+ygAFJ4S9phoKKVx4KE0BtzPrF+Wc9CFuUWtSFEaAx6UxgD2x2WWxhNWUxoD8I+mTZtmO96/8cYbPVcY/+9//zvuWtCbNm3K9lqz3XvvvfZRACg8Jd9xjol+WUBpHHAojQH3e/PNN3MdBCYkJNhHiwilMeBBaQwgOj4lozQev3qfTQEg/8yaxtWqVct1zG+WpEtOTrbPOrrY2Nhcr73pppvsowBQeEq96xwTDZ4XZZPgR2kMICiYdcwqVKiQ6yDQDL8oUpTGgAelMYCDCZml8bhVlMYACm7OnDm5jvfNOcD27Xk73oiOjs71+ltvvdU+CgCFJ7z5VM8x0aC5lMYBh9IYcJ9Jkybphx9+0LPPPqtKlSrlOgA02ymnnKIuXbpo7NixnucfPHjQvrqQxEeo/eW2NL68vSIojRGiKI0BxCamZpTGY1fmHkoFAL7q0KFDruP9Dz74wD56fKtXr871+ieeeMI+CgCFp2wLpzQeOHenTYIfpTGAgGQmIl9yySU+b94mKftV3ES1PD/ccwAafkErTYyzORBiKI0BxCVllsZjllMaAyi4xo0bZyt8TzrpJJ8uChk1alS215ute/fu9lEAKDzlW07zHBP9MIfSOOBQGgMoCnFLuqvJCWGeA9CwE5qo2xJaY4QmSmMA8VlK4z8pjQEU0K5du3INve7Ro4d9NG86deqU7fVmmzp1qn0UAApPhVZOaTxg9g6bBD9KYwA4roOa/MWLeuqhJrq4TlmFZRyEhqlsnYt020NP6ZVvZ4iVKhBKKI0BJKYcziiN/1i2x6YAkD+DBg3KVvZWrVrV56HXt9xyS7afUb58ec9wPAAobJXec86P+s2kNA44lMYAABQdSmMAyamZpfFvSymNARTMY489lq3wfe655+wjebN//36VLl062894/vnn7aMAULjSz4++ozQOPJTGAAAUHUpjAKmHj2SUxiOX7LYpAPguJSVFVapUyVb4mkHXvvjuu++yvd5sc+bMsY8CQOGq8n6E55ioj4vOjyiNAQCAzyiNARzOUhqPWExpDCD/IiIispW9ZlkJX5emuOGGG7L9DDNU78iRI/ZRAChcVds4pXGvCErjgENpDABA0aE0BmDKmPTSeNgiSmMA+demTZtshe+9995rH8mbRYsWZXu92WbNmmUfBYDCV62tUxp/M22bTYIfpTEAAPAZpTEAo4QtjYcu3GUTAPDdxRdfnK3w7dOnj30kbx544IFsr2/WrJl95FhSFTVviD55+X5dfc7JOqlSJVU9+Wxdefdz+mDANG1myjUAH9RoN8NzTPQ1pXHgoTQGAKDoUBoDMEq+45TGvyygNAaQP9u2bctW+Jpty5Yt9tHjM1cUZ31t1apVtWvX8fZJBzW/79O6sHJYttdmbGHhOv2OD/X35mT7fAA4tlofOKXxV1O32iT4URoDAACfURoDMEq965TGP8+PsgkA+KZ///7ZCtsLLrjAPnJ8qampatSoUbbXjxkzxj56NKnaMfpNXVQhTGGV6uuah17Q2++1Vov/Panbzq2qsIyfFabqN3+iGQftywDgGGq3n+k5JvpiCqVxwKE0BgCg6FAaAzDCm0/17At+mkdpDCB/HnzwwWylb+vWre0jx9exY8dsr23Xrp195BjiZqjDlZVVr8n7GrEiRyMcs1qj3rtJtUrZnxlWVbd/uUxcbwzgeOp2cErj7pPzfqdEoKM0BgAAPqM0BmCUbeGUxgPn7rQJAORdUlKSKlWqlK34nT59un302IYPH57tdY888ogOHz5sHz262AktdMnVrTV+V6pNckjdqF+ebahw+3PL39RFixPtYwBwFPU+nOU5Juo6kdI44FAaAwBQdCiNARjlW07z7At+mENpDMB3kyZNylb8nnjiiUpJSbGPHt3YsWMVHh6e8boXXnghT6+TEjXv00f0+m/HXvM4cf4nuq6887PD6r6kUbH2AQD/3959wFVV/w0cxxsRQWpqoo9ZpjlKG5q2LJuWNkzTxt/Ksmm7XJl7pznTUis1t7nKPXIrDlwoqIiKLBUFBRQECa99H37nnntZF7gXGXd83q/XeT3P/5x7EZQO53449/dFHmoMNEXjEURjx0M0BgCg5BCNASi+35mi8R8BRGMA9uvWrZsl/Krtuuuuk0WLFulHc1NrGE+YMEFuuOEGy3MGDRok//33n/6Ighglet9eiSjozuGUtdK1vilKe972qSwhGgMowB16NB6+Pkrf4/yIxgAAwG5EYwBK2R6mc8GUnTH6HgCwXf369S3xN+v23HPPaXcTq0isxMfHy7x586RJkyaWx6iBeWvWrNGOF7m0XTKoqY/25/g8NVz2szwFgALUGhygXRP9sI5o7HCIxgAAlByiMQDFfC74fQfRGIB9IiIiLAFYbWXKlJGffvpJqlevnm2/j48p3po3FYunTZtmCcrFImWNdL5L3WnsLY17+0uqvhsA8lJ7iCkaD1kbqe9xfkRjAABgN6IxAKVCz23aueBXzgUA7DRx4sRsMfjBBx/U9qu1idVaxwMHDpQvv/xSPv/8c+nRo4csWLBA4uLitMcUt/TgkfKsr4cYyj0rI5mCB8AGdYfu0q6JBv9DNHY4RGMAAEoO0bg4pMn+Wf2kW9eu0jW/rVs36db9O/m+Vz8Z/OM4mTx3hWw/Fi/p+ke5dklydMs2OVZ0HxAurGIvUzSetI1zAQD7vPzyy9micd++ffUjpS1NgkY8I74GL7nrsyVythhvaAbgOurp0Xjgmgh9j/MjGgMAALsRjYtB+hH5qYVvthfQtm4Gr6ryYIeRsi762kpv8tEV8mOHJlL9xXFylGgMG9zS2xSNJ/if0vcAQMEuX74sN954Y7afZdu3b9ePlrKEf6TrfV7iWfNtmRHGD0MAtrn7h93aNVH/1URjh0M0BgCg5BCNi0HCAnm/miHbC2j7NoNUfnaobLuofzw7nV/dUx7x88z4OF5y33cbJUXfD+THr8927Vzw81aiMQDbqQF2WX+GVahQQVuWovSlSuDI56WiV215d1ZYEb6LB4CrazDcFI37rgrX9zg/ojEAALAb0bjopfr3kSbephfPBt8H5e2efbW36lrf+kjvnt3lm07tpfndFcRgfuFtqCxtJh0rxIvcFFnfrYF46R/jndkls2YknF/VvqZoPG7LSX0PABTs66+/zhaN33jjDf1I6UoNGietqpaTxt8ul9MsSwHADvf+uEe7JuqzkmjscIjGAACUHKJxUTNKxK9tpJzB9OLZp9lQ2Wvr3J2LgTLxtZriqb3wNkj5Nr9KhL0vdNNDZKx5aQyfZ2RkMEN/YJv/67dDOxeM3Uw0BmC72rVrW4Kx2qZNm6YfKUWJ2+WH5n5ye+txsjdJ3wcANrpPj8a9VhCNHQ7RGACAkkM0LmpJsuxzc/j1krrfrJZk/Ygtst6l7HVvd9lg79oS5+dJxyqmpTG86n4ja1ibAja6tb8pGo/ZRDQGYJvQ0FBLLDZvp0+X8vWEMVL+/qKRVGvWU9bEcIsxAPs1HGGKxt8vP6HvcX5EYwAAYDeicRFL2ydDm/mYXjwbKkn7mWf0A7Yxhv0iL/maXnh71v5KVtpUnNMlcuN0+XncOPmpz2tSz8v0fO+G78rQjH3jxv0sM7eeFF46Iz+3DdipnQtGbYzW9wBA/n788UdLLFbbvffeqx8pLQmyfcQLUvP+T+TP47zTBkDhPDBqr3ZN9N0yorHDIRoDAFByiMZF7MwM+V9FfQieb3MZddC+VYkTl38pdTz16PtgP9meqh/I10VZ+EHVzPWQc26GsvLq79FEY+SrxkBTNB6xgWgMoGBGo1HuuOOObD9vPv30U/1oaUiW4Clvy911X5eJ++15jw8AZNdktCkad18apu9xfkRjAABgN6Jx0UpZ21Xq63f6et37nX3LS6Tsl59eqqLHX0+57aNFEq8fyldakIx4Rr+72drm1UC6rWOdCuTvDj0aD18fpe8BgLzNmzcv18+bbt266UdLWqqEzv1EGtZqKcP8z+v7rEs/e0yOxfJrVAB5e3D0Pu2aqOsSorHDIRoDAFByiMZFKV1CxrQQX+3Fs0Gqdpwv+b90zZQauUHGtm8gvvoAPQ+v+vL1KpuSsUjaHvn9q47y7rvt5enaXqbne1aRB9t0yNj3rrz7/iBZcpIXyMhfrcEB2rlg2DqiMYC8nTp1Sn777TcpV66cJRabt4oVK8r69eu1u5BLTpocm/+ZNK7xlPReczrfd9WkRa2Rfi/9T34Ote9dQADcy8NjTNG48+Lj+h7nRzQGAAB2IxoXpXiZ39G8TIS3NPpkgsybP1/m57XNmyVTfhokXd59XupX8sxcXsLgJXU7zpET9r6mTd0mfZt4ax/DUPFNmcYAINih9hBTNB66NlLfAwCZRo8eLZUrV7YE4vw2X19fuf322+Wbb77Rn11cUuXI3E7yQDkfqfvKN9J/wAAZkGvrL317dpOvOr4sD1TzlsrtJks4Px4B5OPRsYHaNdE3fxONHQ7RGACAkkM0LkKp/tK7sSnaFnozZLzwbTdGttl6i3IWxohJ0rqcaT1lnyeHSSAzgGCHukN3aeeCwf8QjQHkFhERIfv377drO326OK8tkiV4Wke5r6w+R8CWzbOavDMr/7uRAeCxcaZo/PVfRGOHQzQGAKDkEI2LjhZt7XnxmnUzeInffa2ly6+bJaqQsTdpyadSQxui5yV1v1md8XIasF09PRoPXBOh7wEAx5Wyuac08rHvZ65njY9kUZz+AQAgD4/r0fjLRcf0Pc6PaAwAAOxGNC46SUs/k5patPUQQ6X68kTLltLSvLVoIc2ffFjuua28eJrXLfasLA+06STfDZ0o8zcdkfPXdOtTmuwe3FR81Mc1VJT/TY/hTirY5e4fdmvnggGricYAAMB9PTF+v3ZN9PlCorHDIRoDAFByiMZFJU32Dn3cFG09DFLhjT/ktLVqazwvgbM7y5NVPbXHVWzyiUwPStIPXgPjaZn6egXTusg+T8nwA6xNAfs0GG6Kxv1WEY0BAID7eupnUzT+dIHrdEmiMQAAsBvRuKickWlvVtSH2fnI40P3SN7ZNl3C538od3upt9UaxKfBJzI/4hrvC05eLV/XVSHaQ7zqfStrUvT9gI3u/XGPdi7oszJc3wMAAOB+XLFLEo0BAIDdiMZFJOUf6XK3lxZtPTxryufLCrh72BgpczveKZ5aZPaU2u/NuaZp7mkHfpSnfUx3OVdqP0PO6PsBW90/whSNe60gGgMAAPfVfKKpS348L1Tf4/yIxgAAwG5E46KRfni0POeroq2HGMq1kd8iCy7A6aETpbWfPsTH6275YunZQq9DHDvrLamsrZXsI0+PCMrnLmfAuoZ6NO65/IS+BwAAwP08NzFIuyb68E+iscMhGgMAUHKIxkUjfl5HqaoPuPN+qL9sT9UP5Cteln91l3hpdxsbpNxTw2RvoWpviqzv1sD0cbzuks6sTYFCeGDUXu1c0GMZ0RgAALivFpNM0fj9uUf0Pc6PaAwAAOxGNC4KqbK11wPircVfT6n+8V+SqB8pSNreofKEr/lu43ry5fJ4/Ygd0o/ITy18tY9hKP+6TLU6gQ/IX5PRpmjcfWmYvgcAAMD9vPBrsHZN1HEO0djhEI0BACg5ROMiYAyXia+U1Yfg+cqLPx+XdP1QgdKPyi8vV9Cf6ynV3pop0Tmab2rCGTkZHS3RGdvJ2Iu5P/bFv+WT6qYheJ53fikrkvX9gB0eGrNPOxd0XUI0BgAA7uul303R+N3ZRGOHQzQGAKDkEI2LQNIS+bSGKdp6eDeUnpttWptCZ5Soaf+TKvrSFoYKL8r4I1mz8HmZ+24VPSobpErHeZLzXuSs6yl7ePrJg69/Id37DJVfFh/I9VggLw/r0bjLYqIxAABwXy/r0fidWSH6HudHNAYAAHYjGl+7tN1D5DEfPfpWeU/+PK8fsFXsAvnQHJ0NPtJ00C6xZOeUDfLdvV6mYx4+8oyVIXfGsAnSqpy+xIVlM0j5tpNz3bUM5OXRsYHaueDbv4/rewAAANzPK5MPatdEb80kGjscojEAACWHaHytjBLzxxtSQb9T2Pf50XLY5rUpzBJl1Td36wPxPMSrQRdZc9F0JD1kjLSw3EVcS75YbmXtCeMZWdPvWbnVK2s49paH+u/IjM9AAR4bZ4rGX/9FNAYAAO6rzRRTNG4/47C+x/kRjQEAgN2Ixs4gSVZ/U0+8qrSXmXkOuUuVk7uXyJSxQ2XQoB9k7ORFsiMy5z3JQN6ajd+vnQu+XHRM3wMAAOB+2k49pF0TvTmdaOxwiMYAAJQcorETOLtEPqvnLTU/XCBnWW4CxeQJPRp/QTQGAABurN0fpmj8+jSiscMhGgMAUHKIxg4u7bgs/KKxlKvWSsYHcecwis9TP5ui8WcLuAYHAADuS8VidU2k4rGrIBoDAAC7EY0dWOI/0uuRquJz6zPy/dJwsXupZMAOXIMDAACItiyFuiZSy1S4CqIxAACwG9HYcaWHr5QJY2eLf0SKvgcoPs0nmq7BP54Xqu8BAABwP2oAnromUgPxXAXRGAAA2I1oDEB5bmKQdi74iGgMAADc2FszQ7RrolcmE40dDtEYAICSQzQGoLSYZIrGH8wlGgMAAPf1zixTNH7592B9j/MjGgMAALuVVDROTU2VAQMGSEoKSy0AjuiFX4O1c0HHOUf0PQAAAO7n3dlHtGuil4jGjodoDABAySmJaKyCcaNGjcTDw0Pee+89+e+///QjAByFemGkzgXqhRIAAIC7Ur9AV9dE6hfqroJoDAAA7FZSdxp37txZi8ZqmzJlir4XgKNQb8FU54IOs0P0PQAAAO7n/bmmaKyW7nIVRGMAAGC3korG6enp0rRpUy0a33DDDbJ//379CABHoIa9qHPB27OIxgAAwH19+Geodk2khgS7CqIxAACwW0kOwjt58qTccsstWjiuVauWJCQk6EcAlLY2U0zRuP2Mw/oeAAAA9/PxPFM0bj7xgL7H+RGNAQCA3UoyGitr166VMmXKaOH45ZdflqtXr+pHAJSmtlMPaeeCN6cTjQEAgPtSPVJdE6k+6SqIxgAAwG4lHY2VoUOHWtY3HjRokL4XQGlq94cpGr9BNAYAAG7s0wWmaPzUz66znB7RGAAA2K00orG6u/iVV17RorG663j16tX6EQCl5fVph7VzwWvTDul7AAAA3M/nC49p10RPjCcaOxyiMQAAJac0orFy4cIFqV27thaOK1SoIOHh4foRAKVBLUuhzgVqmQoAAAB39eUiUzR+fFygvsf5EY0BAIDdSisaK8HBweLj46OF44YNG0pKSop+BEBJUwPw1LlADcQDAABwV1//dVy7JnqMaOx4iMYAAJSc0ozGyty5cy3rG7dv317+++8//QiAkvTWzBDtXNCaaAwAANzYN3+bovGjY4nGDodoDABAySntaKx069bNEo5Hjhyp7wVgjfrFypEjR4r8FyzvzDJF41aTicYAAMB9dV5sisYPj9mn73F+RGMAAGA3R4jGV65ckeeee06LxgaDQdasWaMfAaCo/0Y2bdoknTt3ljvvvFOeeOIJ/UjReXf2Ee1c8NLvwfoeAAAA99N1SZh2TfTgaKKxwyEaAwBQchwhGivx8fFSq1YtLRzffPPNcvz4cf0I4J7UsMj58+fL22+/rQ2LNN+Nr7bJkyfrjyo6HeeYovELvxKNAQCA++q+1BSNm4zeq+9xfkRjAABgN0eJxooajOfr66tFsQYNGkhSUpJ+BHAPERERMn78eGnevLlcf/312UKxebvhhhskMTFRf0bReX+uKRq3/DVI3wMAAOB+vlt2QrsmemAU0djhEI0BACg5jhSNlUWLFlniWOvWreXq1av6EcD1qO/v3bt3S58+feS+++7LFofz2l5//XX92UXrwz9DtXPB85OIxgAAwH19v9wUjRuO2KPvcX5EYwAAYDdHi8aKCmjmQNa7d299L+B61BrFWYOwLduyZcv0Zxetj+eZonHziQf0PQAAAO6n14pw7Zrovh+Jxg6HaAwAQMlxxGis7r589dVXLZFs7ty5+hHAtaSnp0urVq2yReH8tltuuUV7TnFQ197qXKCuxQEAANxVn5WmaHwv0djxEI0BACg5jhiNleTkZMvb9dUargEBAfoRwLVcvnxZnn322VyB2Nr25Zdf6s8qep8tMEXjp38hGgMAAPfVd5UpGjcYvlvf4/yIxgAAwG6OGo2VyMhI8fPz02JZlSpVJCoqSj8CuBb1S5KmTZvmisQ5t+L85cnnC49p54Inf96v7wEAAHA//VdHaNdEd/9ANHY4RGMAAEqOI0djZceOHdqdxiqYqTuPk5KS9COAazl69GiuSJx1q1Onjvz333/6o4vel4tM0bjZeKIxAABwXwPXmKJxvaG79D3Oj2gMAADs5ujRWJkzZ44lnL344oty5coV/QjgGk6fPi133XVXtkiccxs0aJD+6OLx9V/HtXPBY+MC9T0AAADuZ/A/kdo1UV2iseMhGgMAUHKcIRor/fr1s8SzL774oljvuARKklp25c4779S+t8uUKaN9r9esWdPy/W7ewsPD9WcUj2//NkXjpj8RjQEAgPsastYUjWsPcZ2ZKkRjAABgN2eJxioSv/XWW5aA9tNPP+lHAOcVFhYmNWrU0L6nDQaDTJ8+XduvAnG1atUs3++PP/64tr84dV5sisaPjN2n7wEAAHA/P6yL0q6Jag0mGjscojEAACXHWaKxkpaWpsUzFdHUHZlLlizRjwDOJzQ0VG699Vbt+/m6666TefPm6UdMQkJC5JZbbtGO//bbb/re4tN1SZh2LnhoDNEYAAC4r+HrTdH4joE79T3Oz+Wi8WvTDul7AABAcXGmaKycP39eGwimQtqNN94oAQGucwcA3MfBgwelSpUq2vfx9ddfL3///bd+JLvAwEDtcQkJCfqe4tN9qSkaNxm9V98DAADgfkZsiNauiWoQjR2PORqrrcWkIJkaECPxl9L1owAAoCg5WzRWjh8/brkDU/1f9b8BZ6FCcKVKlbTv3xtuuEFWrlypH7EuJiZG//+KV49lJ7RzQeNRRGMAAOC+Rm00RePbBhCNHc7nC4+JobMpGps3zy6bpeWvQfJHwBlJSCEgAwBQVJwxGivqDmN1p7EKb7Vr15a4uDj9COC41PftzTffrH3f+vj4yPr16/Ujpe/75aZo3Ggk0RgAALiv0ZtM0fjW/jv0Pc7PZaKxcjbpX5m47bQ89fN+KaOHY/OmAvILvwbLtF0EZAAArpWzRmNl6dKl2vAwFeAeeughuXTpkn4EcDz+/v5StmxZ7ftV/d+tW7fqRxxDrxXh2rng/hF79D0AAADuZ+zmk9o10f/1Ixo7vDMX/5UJ/qfkSSsB+fouW+TF34Jl+q4zkph6RX8GAACwlTNHY2XixIlahFNby5YtJT2dXyjD8WzYsEG7s1h9n5YvX94h1+Lus9IUje/9kWgMAADc17gtpmhcte92fY/zc9lonFXMhTT5ZespeWK89YD80u/BMmM3ARkAAFs5ezRW+vTpYwnHHTp0kKtXr+pHgNK3evVq8fb21r4/1VrG+/bt0484ln6rIrRzwT3Dd+t7AAAA3M/PW09p10R+fYjGTuv0hTTtH7JZHgH55d+DZebus3KBgAwAQJ5cIRr/999/8tFHH1nCcdeuXbV9QGlbtGiRXH/99dr3pZ+fnxw8eFA/4nj6rzZF4/rDiMYAAMB9qZtV1TXRLb236Xucn9tF46xUQB6/5ZQ8Pi4wV0D26rpFWk0+KLP2nJWLlwnIAABk5QrRWLly5Yq88sorlnA8bNgw/QhQOmbOnGlZc7t69eoSGhqqH3FMA9eYovFdP+zS9wAAALgfNWNNXRNV7EU0djmnEtO09UceGxdoCcfmTQXkVyYflNkEZAAANK4SjZXU1FRp1qyZJRz/9ttv+hGgZE2aNMnyfVirVi2JiIjQjziuwf9EaueCukOJxgAAwH39mvG6SF0TVehJNHZpJxPT5KfNJ6XpT7kD8g1dt0jrKQdlzt6zkkRABgC4KVeKxsqFCxekYcOGWqwrU6aMzJ8/Xz8ClIyRI0dagvFdd90lp06d0o84tqFrTdG4zhCiMQAAcF+/74jRronU6yRXQTQuQHTCZRm7+aQ8OtZ6QG4z5aDM3RdLQAYAuBVXi8bK2bNnpXbt2lq0U+vJrly5Uj8CFB+1jnb//v0twVj98iIuLk4/6vh+WBelnQvuHByg7wEAAHA/k/VoXLYH0dgtqYA8ZhMBGQAAV4zGiloO4NZbb9Xinbe3t2zcuFE/AhS9q1evSufOnS3B+JFHHpHExET9qHMYvt4UjWsOIhoDAAD3NTXAFI19v9uq73F+RONCikq4LKM3RcsjY/dZwrF58+62RV6dekj+3BcryWlG/RkAALgOV43Giho85ufnp0U8X19f2blzp34EKDpqCGPHjh0twfjpp5+W5ORk/ajzGLEhWjsX1BjIfycAAMB9Tdt1Rrsm8ulONEYWkfGXZdTGaHl4jPWA3HbqIZkXSEAGALgOV47GSlBQkFSoUEGLeTfffLPs27dPPwJcu7S0NGnbtq0lGLdu3VouX76sH3Uu6hpYnQtuH0A0BgAA7mvGblM0Vh3QVRCNi1hE/GUZuSFaHrISkG/svlXa/XFI5gfGyiUCMgDAibl6NFZ2794tZcuW1aJexYoV5cCBA/oRoPCSkpLkmWeesQTjDh06aHcdOyv1zjt1Lqjef4e+BwAAwP3M3H1Wuyby6ko0hg3Cz6dqb9l7cLT1gPzatEOyYH8cARkA4HTcIRor/v7+2hIVKu5VqlRJgoOD9SOA/WJjY6Vx48aWYPzll19q6xo7MzUwWp0LqvUjGgMAAPc1e48pGnt22azvcX5E4xKiAvKP66Okyei9lnBs3tR6J69POywL98dJyr8EZACA43OXaKxs2bJFfHx8tMhXuXJlOXTokH4EsJ0aslinTh1LMB40aJD8999/+lHnNW6LKRpX7btd3wMAAOB+5u6L1a6JrutMNMY1OHEuVZs03XiU9YD8xvTDsugAARkA4LjcKRorGzdulBtvvFGLfWpI3sGDB/UjQMH2798vVatW1b5/ypQpI5MmTdKPOL+ft57SzgVV+hCNAQCA+1KzzNQ1UZmMzVUQjUtZ2LlUGbYuSh6wEpB9v9sqb04/LH8FxUkqARkA4EDcLRor69atE29vby383XLLLaxxDJusX7/esja2l5eXLFy4UD/iGn7Ro3Hl3kRjAADgvtT8MnPPc4V3kylEYwdyPC5VflgXJY1GWg/I/5txWP4mIAMAHIA7RmNFBUDzHcdqOF5gYKB+BMjtzz//lOuvv177filfvrxs3uw6d56YTdx2WjsXVOq1Td8DAADgftSSs+aGd/Uq0RjF6FhcigxdGykNR+yxfNOZt5u+2yrtZxyWxcHn5HK6cw9PAQA4J3eNxooKf+bheDfffLPs3r1bPwKYqLtLhg8frn2PqO3WW2912SGKv2acA9S5oEJPojEAAHBfapUAc7czEo1RUswB+f48AvJbM0NkCQEZAFCC3DkaK/7+/nLTTTdpQVD9X1e8gxSFc+XKFenUqZMlGDdo0ECioqL0o67n9x0x2rlAnRMAAADclbqx09zq0o2u0eeIxk7maGyKDFkbKff9mDsgl+3hL2/PCpGlBwnIAIDi5e7RWAkICJAKFSpoYVCtdbxq1Sr9CNxVUlKSvPjii5Zg/PTTT0tiYqJ+1DVN1qNxuYzrUAAAAHelbuY097m0K0RjlLLQ2BQZ/E+k3JtHQH5nVogsO3jOZb5ZAQCOg2hsEhQUJH5+flogVGvXutqQM9hO3U183333WYJxhw4d5N9//9WPuq6pAaZorN79BgAA4K5UfzM3OVeZRUY0dhFHzqbIoDWRcs/w3ZZvUvOm7vzoMDtElh86T0AGABQJonGm0NBQqV69uhYKDQaD/P777/oRuAu1rnWVKlUswbh///4uMzW7INN2ndHOBT7dicYAAMB9rTh03tLhUojGcFQhZy/JwDUR0sBKQFYv8t+dfUT7Zv6XgAwAKCSicXaRkZFSu3ZtSzQcPHiw20RDdzdv3jy58cYbtX93Ly8vmTNnjn7EPczYbYrG3t226HsAAADcz6qQzGicnEY0hhM4fOaSDFgdIXf/YD0gvzfniKw8TEAGANiHaJxbbGysPPDAA5Zw/MUXX8jVq/x8dVXq37Z3796Wf+/KlSvL9u3b9aPuY9aes9q54IauRGMAAOC+VofEW3rbxctX9L3OjWjsRg7FXJJ+qyLkrh92Wb6RzdvNGS/+O845ov1mhIAMACgI0di6ixcvyjPPPGMJia+99pqkpqbqR+EqkpOTpU2bNpZ/53vvvVfCw8P1o+5lth6Nr+9CNAYAAO7rnyOZ0TgxlWgMJ6XeLnsw5pL0XRUu9YZaD8jvzz2i/ZYk3UhABgDkRjTOW1pamrz++uuWoNi0aVM5d+6cfhTO7tixY9KgQQPLv2/r1q21iOyu5u6L1c4F13XerO8BAABwP+tCEyxdLf5Sur7XuRGN3ZwKyMGnk6XPynCpayUgV+i5TT6YGyprjhCQAQCZiMb5MxqN0rlzZ0tYVOsdHz9+XD8KZ7V8+XIpX7685d9VLU/h7kuQzAs0ReMyGRsAAIC72nA0MxqfJxrD1aiAHHQ6WXqvCJc6Q3IH5Iq9tsmHf4Zqt9wTkAHAvRGNbTN+/HgpU6aMFhgrVarklmveugIVhgcMGGCJxTfddJP89ddf+lH3tmB/nOVaEQAAwF1tPJYZjeOS/9X3OjeiMaxSAfnAqWTptSJcag8JsHzjmzcVkD+aFyprQ+PlipHp8ADgbojGtluyZInceOONWmz08vKSmTNn6kfgDNTSIi1atLAE47p168rhw4f1o1iYJRqr60cAAAB3tPl4ouWa6GwS0RhuQr0A2H8qWXouP2E1IFfqtU0+nheqrd9CQAYA90A0ts/u3bulatWqlvD4/fffa0tYwLHt2LFDqlevbvl3U+sXX7hwQT8K5a+gzGhsvMp1IAAAcE9bwzKjccyFNH2vcyMawy4qIAeeTJLvl5+QOwfnDsi39N4mn8w/KuuPEpABwJURje0XHR0tDRs2tATIl156iQDpoNRyFKNGjRJPT0/t3+q6666TkSNHcietFYuDz1muA1m+DAAAuKttJy5YrolOE43h7tQLp33RSdJj2QmpZSUgV+69XTrNP6otBk5ABgDXQjQunEuXLkm7du0s4bhevXoSEhKiH4UjiI2NlZYtW1r+japVqyb+/v76UeS09GBmNP73CtEYAAC4p+3hmdH4ZCLRGLBQAXlvdJJ8t+yE1BxkPSB/uuCotjA4b10EAOdHNC48dRfrwIEDLVGSoWqOY926ddmWEXnhhRe0iIy8LcsSjS+nE40BAIB72hlx0XJNFJVwWd/r3IjGKHIqIO+JSpLuS8PkjoE7Lf/RmDe/PtvlswVHZdPxRAIyADgpovG1W758uZQrV84SKLt27Srp6en6UZSk1NRU+fbbby3/Ftdff72MGTNGC/zI34pD5y3XeCn/sk43AABwT7siM6NxRDzRGCiQCsi7oy5Kt6VhUsNKQK7SZ7t8vvCYNmWSgAwAzoNoXDSOHj0q99xzjyVWNm3aVFv7GCUnMDBQ6tevb/k3qFOnjuzdu1c/ioKsCsmMxslpRGMAAOCe1M2T5mui8POp+l7nRjRGiVEBWf3mpeuSMLl9QO6AXLXvdvli0THZEkZABgBHRzQuOmqd4w4dOliiZcWKFWXp0qX6URQXdVe3WiZE3VVs/rv/9NNPtX8P2G7NkXjLtVzS5Sv6XgAAAPeilmw1XxOFnSMaA4WmAnJA5EXpsjhMbssjIH+56JhsDUuUqwRkAHA4ROOipX4uTpkyRby9vS0B86uvvpLLl13jrW2OZt++fXL//fdb/q7VOsYrV67Uj8Ie/2SJxhdSicYAAMA9BZ7MjMbH4lL0vc6NaIxSp6KwWjC88+LjUr3/Dst/ZObt//rtkK/+Oib+Jy4QkAHAQRCNi0dwcHC2pRIaNGggBw4c0I/iWqkI37t3b7nuuussf8ft27eXc+fO6Y+AvdaFJliu2RJSWJMbAAC4pwOnki3XRKGxRGOgyKkovCPignz7t/WAXK3fDvn6r+OyjYAMAKWKaFx8UlJStGUSzFHTy8tLhg0bJleucBfntVi/fr3Url3b8vf6f//3f7JkyRL9KAprw9HMaHz+EtEYAAC4p+DTmdH4yFmiMVCsVBTeHn5Bvvn7uNxqJSCrfeqYegwBGQBKFtG4+C1btkz8/PwskfPhhx+WkJAQ/ShsFRMTI2+99Zbl71FtH3zwgSQkJOiPwLXYdDzRcm12LploDAAA3NPBmEuWa6LDZ1xjRgbRGE5BRWF1d7G6y1jdbWz+D9G8qYCs7k5WdykTkAGg+BGNS0ZsbKy0bdvWEjvVXcdDhgzRhrghf//++6+MGDFCbrrpJsvfX7169WTz5s36I1AUNmeJxrFJ/+p7AQAA3IsKxeZrIhWQXQHRGE5HRWG1vrFa51itd2z+j9K8qWUt1PrIap1kNVgIAFD0iMYlR/0smzNnjlSqVMkSP++55x7Zvn27/ghkpf6+1LITWZeiuPHGG+WHH36QtLQ0/VEoKmposfka7MxFojEAAHBPakkK8zVR0Olkfa9zIxrDqamArF6sfLnomFTtu93yH6h5u23ATumyOEwCIgnIAFCUiMYlT911/Oabb1pCqNrUMgtxcXH6IxAQECDNmjXL9nf0+uuvS2RkpP4IFDX1TjDzddfpC0R5AADgno7GZkZjNRTPFRCN4TKMV/+TLWGJ8kUeAfn2ATul65Iw2UVABoBrRjQuPatWrZI77rjDEkVvvvlmGTt2rLYcg7s6dOiQvPrqq9li8QMPPMBSFCVALQ1mvtY6lUg0BgAA7ul4XKrlmijwZJK+17kRjeGSVEBWa+x9vvCYVOmTOyDXGLhTui0Nk91RBGQAKAyicelKSUmRPn36aGscmyNpnTp15O+//3arn2sqFqu7r8uUKWP5e6hRo4bMmjVLrl69qj8KxUktB2a+vopOuKzvBQAAcC9h5zKj8d5oojHgFFRAVpO9P1twVPysBOQ7Bu6U7kvDZE9UEgEZAGxENHYMYWFh0qZNG0swVdsjjzwiGzdu1B/hmnbv3p3rzmI/Pz8ZN26cXL5MuCxJ6h1c5muqyHj+7gEAgHsKP58ZjdUNiq6AaAy3ogLyxmMJ8umCo1K5d+6AXHNQgHy37IT2WyECMgDkjWjsWDZt2iSNGzfOFlGfeuopLR67ys8zo9EoixcvzrVmceXKlWXEiBGSnOwaa8c5G/VLd/N1lHqxBAAA4I7UL8/N10Tql+qugGgMt3XF+J9sOJogneZbD8i1BgdIj2UnZB8BGQByIRo7HrUcw/z586Vu3brZoqq681gtW6GiqzM6e/asDBs2LNs6zmqrXr26dmexWqoDpUddJ5mvnU6cIxoDAAD3pJbpMl8TqeW7XAHRGMigAvL6ownyyfyjckvvbZb/0M2bCsjfLz+hLWZOQAYAorEju3LlisycOVNb4zhrZK1Vq5aMGTNGEhIS9Ec6rvT0dFm+fLm0a9dOrr/++mxfR6NGjWT27NnaY1D61LWR+XpJDYABAABwRycT0yzXRNvDL+h7nRvRGMhBBeR1oQny8bxQqdQrd0C+c3CA9Fx+QvafSiYgA3BbRGPHp+4sXrBggTzwwAPZoqu3t7d06NBBW7rCkYbFqditltn47LPP5JZbbsn2OauBf+3bt5dt27bxs9fBHMi4HjJfIx2N5a5vAADgnk5fyIzG/ieIxoDLSzdelbWh8fJRHgG59pAA6bUiXHvBxItYAO6EaOw81M+nLVu2SNu2beW6667LFmPVEg+dO3eWHTt2lMryFfHx8dqSGu+++26uUKy2e+65R0aPHi3nzp3TnwFHE3w6MxofOUs0BgAA7unMxX8t10RbwxL1vc6NaAzYSAXkf47Ey4d/hkpFKwG5zpBd0ntFuARlvHgiIANwdURj53Tq1CkZNGiQtlRFzkDr5+enxVu1tEV0dLT+jKJ1+vRpbX3lLl26aIP7ypQpk+vzuP3226V79+4SGBjIz1MncCjmkuVaKOTsJX0vAACAe4lNyozGm48TjQG3pQLymiPx8sHcUKnQM3dArjt0l/RZGa7dfcMLXgCuiGjs3NTPJn9/f/nyyy+latWqucKt2m699Vbt7uSBAwfKokWLJCgoSC5evFjgz7V///1XwsPDtaUmJk+eLN26dZOWLVvK//3f/1n9c9TWsGFD6d27t+zdu5efm07m8JnMaKwCMgAAgDuKS86MxhuPOf4MEVsQjYFrpALy6pB4eX/uEasBud7QXdJ3VbgczHghxQthAK6CaOw61LrGAQEB0qdPH3n44YfFYDBYDbvmzcfHR2rUqCH33nuvNGnSRB588EG5//775c4775Sbb77Z6nNybmpI3wcffCCzZs2SM2fO6J8JnJFaksJ8zaN+WQ4AAOCOzl9Kt1wTrT9KNAaQw79XrsqqkPPScc4RuVkPKlm3u37YJf1WRXAnDgCnRzR2XRcuXJDVq1dL37595eWXX5bbbrvNavi1ZVND91RcfuONN2To0KGyatUq1id2MWr4nfk6R814AAAAcEcJKZnReF0o0RhAPlRAXnn4vLw354glrmTd6g/bLf1XR2hv6wQAZ0M0di+XLl3SlqdYsWKFtuTEsGHDpFevXtrSE127dpXvv/9ehgwZIhMmTNCWsti+fbu2frK6ixmu7XhcquXaZj/RGAAAuKkLqVcs10RqHpYrIBoDJSDtylVZcei8vDvbekBuMHy3DFgdwQAZAE6DaAxACTuXGY33RSfpewEAANzLxcuZ0VgtYeoKiMZACVMBefmh89JhdoiU65E7IN8zfLcMXBOhrREIAI6KaAxACT+fGY33RBGNAQCAe8r67iv1rnNXQDQGSpEKyMsOnpN3ZoVIWSsB+d4f98igNZESGktABuBYiMYAlMj4y5brll2RF/W9AAAArum///6TE+dSZdGBOOm9Ilxe/C1Y/q/fDsv1kNrUO81dAdEYcBCX06/K0oPn5O08AvJ9P+6Rwf9EagNnAKC0EY0BKNEJmdE4gGgMAABcyBXjf3Io5pLM3H1WOi8+Lk/9vF9utrLkaNatSp/t4n/igv4RnBvRGHBAKiAvCT4nb80MkZu+25rrJHT/iD0yZC0BGUDpIRoDUE4lplmuT3ZEuMYLJAAA4H5Uh9kddVF+zXh902n+UXlozD7x7rbFcp1jbas1OEDa/XFI6zNqSYqYC2n6R3MNRGPAwaX+a5TFweek/YzDVgNywxF7ZGjGCepYHAEZQMkhGgNQTme8ODJfk2xzkbtqAACAa7uQekU2H0+UsZtPavOm1Gyp6zpnby1ZN0PGsQYZj1GPHbPppGzKeG5ixsdwdURjwImogPx3UJz8b8Zh8bUSkBuN3Cs/rIvSFmAHgOJENAagnLn4r+U6ZGtYor4XAADAMahrlVUh57Wb7dRdweruYPO1i7VN3V384Oh98sn8o9pdx2pmg2ox7ohoDDgpddL6KyhO3pxuPSA/MGqvDFsXJWHnCMgAih7RGIASm5QZjbcQjQEAQCmxNqCuat/tlusUa5t6TfPkz/vl27+Pa+sWH4y5pK1jDBOiMeACUv41aifGN6YfFp/uuQNy41F7Zfj6KO0ECgBFgWgMQDmXnG653lBv1QQAAChuKuyqwJt1QJ359UlemwrIL/waLL1WhMvC/XFaH1GhGXkjGgMuRgVkdQLMKyA3Gb1XflwfJeHnCcgACo9oDEA5fykzGm84mqDvBQAAKBrqXdZqiQgG1JU8ojHgwi6lGWXB/jh5fdphudFKQFbr9IzYEC0R8Zf1ZwCAbYjGAJSElMxovC6UaAwAAApPDZdT71xSw+ZsGVCnjqnHuNuAupJCNAbchArI8wNj5bVph6wGZPXbupEboiWSgAzABkRjAIqaPm6+llgbGq/vBQAAyJ8aUKfuAlZ3A9s6oE51C3W3sbsPqCspRGPADSWnGWVeYKx2Yrb2to6HM07EozZGS1QCARmAdURjAErS5cxovOYI0RgAAGSXdUCdWk9YrStsy4A6tU6xWq+YAXWlh2gMuDkVkP/cFyttp1oPyI+M3SejNxGQAWRHNAagqOsI8zXDqpDz+l4AAOCOsg6o+/bv4/KkHQPqeq8I18IyA+ocB9EYgIW6W2juvlh5deohuaFr7oD86NhAbZ2gaAIy4PaIxgAUNYDXfJ2w4hDRGAAAd5FzQJ2amWTrgLqhayO1XzarJSrguIjGAKxSAXnO3rPSZspBqwG56U+BMnbzSTmZyBRSwB0RjQEol9OvWq4NlhONAQBwSTkH1DWwc0Dd5oznqjkIcC5EYwAFunj5iszec1ZaTzkoXlYC8mPjAuWnzSflFAEZcBtEYwDKv1cyo/HSg+f0vQAAwFnFXEi7pgF1u6MYUOcqiMYA7KJ+Ozhrz1l5ZbL1gPz4uEAZt+WknM74QQPAdRGNASjpxsxovDiYaAwAgLNQ6waHnUuVhfsZUAfriMYACk0FZPWDopWVgFwmY2s2fr+M33KKgAy4IKIxAMV49T/Lz/6/guL0vQAAwJGosBt8Ollm7D5j84C6/+u3Q178jQF17oxoDKBIqDWO1A+gl38Pluu75A7IT4zfLz9vPaW91QWA8yMaA1DUi0fzz3v1ghIAAJQu84C6SdtOyyd2DKh7bRoD6pAd0RhAkVMBefquM/JSHgFZ/Vbzl62n+EEEODGiMQAz88/4BfuJxgAAlCTzgLrRm6LlnVm2D6h7d/YRbbA9A+qQH6IxgGKVkJIu03ad0d7W4tkl+w8sFZDVekgT/E/J2SQCMuBMiMYAzNTPc3U+mBcYq+8BAABFLeuAurZTD0nNQbYPqFPX7Ayog72IxgBKTPyldPkj4Iy2wH7OgGzovFme/uWATNx2moAMOAGiMQAz8x1Nc/cRjQEAuFY5B9S1/DVIqvSxfUCdGlx/iAF1KAJEYwClQgXkqQEx2g9AawH5mQkHtDWYYgnIgEMiGgMwMy9FNWfvWX0PAACwhbUBdeV6mK6z89pyDqgLP8+AOhQPojGAUnf+UrpM2RkjLSYF5Vp/SQXkZycckF+3n5a4ZAIy4CiIxgDMbuhqisbqziYAAGCdWhoiIMeAOvPP0Ly2OxlQh1JENAbgUM4lp8vkHTHyvJWArP5384kHtEhFQAZKF9EYgJl5Iru6SwoAAJgG1G08lmDXgLp7f9zDgDo4FKIxAIelAvLvO2LkuYnWA7Lar46rxwEoWURjAGY+3bdq5wM1+BYAAHejBtStOHReBv9j+4C6h8fsk08XMKAOjo1oDMApqDuL1Q9UdaexWrIi6w9dFZDVncnqDmW11AWA4kc0BmB203emaKyG3QIA4KrMA+oW7I+TnstP2DWgrsviMAbUwekQjQE4HTUcT61xrNY6thaQ1drIao1kAjJQfIjGAMzMA3vUz14AAFxB1gF13/x9XJ4Yb/uAuj4rw+WvIAbUwfkRjQE4NRWQ1SCBZ6wEZM8um7Xf/k4NiJF4AjJQpIjGAMzM5wO1ZBQAAM4mJceAuiaj99o1oG51SLyczXhdCrgaojEAl6F+UE/M+EH/9C/WA/ILvwZrb51NSCEgA9eKaAzArELPbdr5QL0LCAAAR6ZeC2YdUFd/2O5crx2zbjkH1G0JY0Ad3AfRGIBLOnPxX5ngf0pbP6pMjh/813fZor1tSA3sISADhUM0BmBWqZcpGqs7tAAAcARqWYjTdg6ou7H71lwD6i6nX9U/IuB+iMYAXJ4KyL9sPSVP5hGQX/o9WKbvOiOJ/MYYsBnRGIBZ5d6mIUDql7UAAJS0q1f/k+Nx9g2ouznjWla9Q5UBdUDeiMYA3ErMhTT5eespbZCBtYD88u/B2rAD3nIE5I9oDMDMT39hrn6+AgBQnNKNV7UBdeqmH3sG1KkbhRhQB9iHaAzAbam3K43fckqaWQnIXl23SKvJB2Xm7rMEZMAKojEAs6p9TdF43JaT+h4AAK6deUCdmlvz8bxQmwfUvT7tsPywLooBdcA1IhoDQIZTiWnai93HxwXmuvBQAfmVyQe1ty1dvExABhSiMQCzav12aOcDNSAIAIDCyDqg7m07BtS9N+eI/MSAOqBYEI0BIIeTiWnahcdjVgKy+s126ykHZTYBGW6OaAzArHp/UzQes4loDADIX84Bda9OPSR3DNyZ7TVXzi3rgLrfd8TInqgkBtQBJYBoDAD5UAFZ3TnV9CfrAbnNlIMyZ+9ZSSIgw80QjQGY3T7A9GJ/1MZofQ8AALkH1LWYFGRZBz+vLeuAOnWjzuEzDKgDSgvR2KWly4n102XihAkyYcJEmbExPGOPHYxnZef8iRnPzXj+xN9lxeFU/QDgnqITLmt3UT061npAVr8ln7svloAMt0A0BmBWQ79DbMQGojEAuCs1oC4ox4C6sgUMqFPLG2UdUBcRf5kBdYADIRq7svjV8m0DL/Hw8BCD9wPSc1OSfsA2aQdGyrPlDNrzPWt0lD9PG/UjDiZlnQxo2VQeffQxaTV0s6Tou+2SslEGv/RYxsd4VJp1mCjBafp+IA9RCZe19bYeGbsv18WPd7ct0nbqIflzX6wkpznofzfANSIaAzCrOShAOx8MXx+l7wEAuDI1oG5nhH0D6moPYUAd4GyIxi4rTfaPel4qGjzEw8NTqr85VcLsus04XlZ9XV+8PDKeb/CRh/tvL1yMLQnJi6VTdU/t67zzqxWSrO+2S/Iy+bym+hge4tN0kOwiGsMOkfGXtbfkqnW2cl4cqYDc7o9DMi+QgAzXQjQGYKYm1avzwbB1RGMAcDVqQN2Gowna6x1bB9Tdx4A6wCUQjV1U+tEp8sZtpghqKP+MDN9j39ISaQdGS4uK+l3G1d6UqeEOHLuIxnAg6i1VIzdEy0NWArIa4PDatEMyPzBWLhGQ4eSIxgDM6gzZpZ0Phq6N1PcAAJyNeUDd8kPnZdAa+wbUfcaAOsAlEY1dUfoxmda+pniqu4RVNPapJNVr1pSaBW53S6cFiSLGcJn5do3M5/v6ye1WH29lq91chmwv4bWPicZwUOHnU7X1HR8cbT0gq7dnqaEQBGQ4I6IxALO6Q03RWE3BBwA4vqwD6r63c0Bd1yUMqAPcBdHY5aTIgZ/bSHVPU/C1bysnb806L5ELPpa7vKwdt2Hzbig9t9gTjdMlbE5neeWFlvLSR5Nkf2FibRFHY0Ol+vJEy5bSMt/tBWk7dL3jLtkBh6MC8o/ro7T1vnJegPl03ypvTD8sCzMu2tT6YIAzIBoDMLvrB1M0HrgmQt8DAHAUWQfUff3XcWlmx4C6vqvC5W8G1AFui2jsUoxyZs330rS8vqxEleek26SZMnPmZBnU/l6pWKu19J2s/nde2xxZu2m6dKhtGp7n4VVH3hg6zXRswvfyct3q8sRXP+d4To5t9mLZacfAPGP4n/J+PdOf5924t/gX5iblIo7Gtm0G8ftgodg3WhAwOXEuVRsW1HiU9YD85vTDsugAARmOjWgMwEytb6nOBwNWE40BoDTlHFCnXm/YM6BuzZF4iWVAHQAd0diFJASMlVdu1++W9a4n7808Jmr2XeySz013Dhu8pd5bkyUor6qauFNGvnirviyFl9T9cL5EqmaVFiw/vVBJDBn7Pas8I/3WxkiRpKykvTKuze2WZTAcJRobKtSWJs2aSbN8tyekZf9/uNMY1yzsXKo2OOgBKwHZ97ut8r8Zh+WvoDhJJSDDwRCNAZjdM9wUjfutIhoDQEnJOaDu7h/yH1Dn2SX7gLqtYYly8TID6gDkjWjsIuJ3/iRt7/TSwq6HZzVpMcxf4vVjkh4mf35YX7wNKhz7yn0fzZHQXMtAJMi67x4QH/UYD4N41+8kC6MyI9X5LYPkWT/9DubqL8nIHQn6kUJKDpY/3mug/3l2ROP0gzLxrQelUaNGmVvDulLFS31uGZ931XrZjzVqIq1/3CEFtmjWNIYDUOuKqd/wNxqZOyDf9N1WaT/jsPb2MAIyHAHRGIDZvT/u0c4HfVaG63sAAEVFLQtxKjH7gLoaNgyoe2QsA+oAXBuisdMzSuzGwfK8dqetCsZ+8mTP1XIyZ1OK95chzf20qGzwvls+X3wm193CxpgtMvZ/9aVspSel/6bz+l6zdDk6s4PU0eOs30vj5aC6jbkQjGf9ZfRrdbMFY5ujcdo+GdrMJ9vz8t+85L4eGwu+I5hoDAdzLC5Fm0LfcITphXjWTQXkt2aGyOLgc1z8odQQjQGY3a//rOq1gmgMANdCDahTrwPmB8baNaDumQnZB9QZMz4OAFwrorELMJ5cI72fqSKenrdK875rJDqPmxDTj82S95s+J90XHsl7CYfUMPH3P2r9zlzjGVnd7Ul5pOMvsu1sYe50TJcY/1+k4wMVTXdE59jsi8YG8W7wonz48cfy8Yet5L6ypphdvlFrfd8r0lBb25loDOd3NDZFhqyNtLwoz7qpIRbq7WhLCMgoYURjAGbmd8j0XH5C3wMAKIh5QN00OwfUvcyAOgAlhGjsIown18ofswLkvPGizP+oplSpUsXq5ufnZ3W/zZtfZfHLtq+q1PtiSYHrCKed3i7Tur8gtX1NS1yozbPa0/LJO4+KTyGjccX35pkG0Vlb09gSgbNG44sSvGqmTJs2Lfc2pae8WMX0uXnd/ZYMm2rlMdo2U1YcuMalOYBrEBqbIoP/idTWI8t5EakuMt+ZFSJLD56TtCsEZBQvojEAM/Ng1x7LiMYAYI15QN0E/1PykZ0D6tT8EwbUASgNRGOXkyiz3y6nxc+S2Qzi98FCU7zNS8oa6XK3d+bdxQYvue2ZzjLrQLycmNhKyur7iz0aGyNkYuuyps+h0JuvvDjeNGAQKG1HzqZo65qZ15LMupXr4S8dZofIMgIyignRGIBZk9GmaNx9aZi+BwDcl3lA3cgN0dqScvYMqBu3hQF1ABwH0djlpMqu6f2kZ8+etm893pGHtaUcPMRQ/mF5p4eVx+TcPm0hNT1VRLUhGluirkG8qj8un/y0TsK1OGyUcKIxUCRCzl6SgWsiLBPss24qIL87+4g2PIOAjKJCNAZg9tCYfdr5QK2nCQDuIueAujZTDto1oG7yjhjZG82AOgCOi2iMLNHVQzyrd5LFBa01kSFt9xB5zEdFVFui8RL5otFj8k7/mbIzJmtuLb1o7FnzA5kRFCIhIbZtwbM7SR0vojGcgxp+MWB1hDSwEpBV6FN3MazIuLj9l4CMa0A0BmCmAog6H3RZTDQG4JqsDair3Dv/AXUVem7LNqBO3eTBgDoAzoRojOKPxpIiyVYn0ZViNK79layy4es0S/mni9xNNIYTOhRzSfqvjtDeFpfzQlZNWu4454isPExAhv2IxgDMmv4UqJ0Pvv37uL4HAJyXGlB34JR9A+pu7Z99QF0kA+oAuACisUtKkKjQI1bvmLW6HZgi71TTl6eo9o5MOWDlMTm2g8u6y4PetkbjvDhSNE6XkBnfyhvt2km7N7rIrNDsWZhoDFegAnK/VRFy1w+7cl3oqoD8/twjsiqEgAzbEI0BmD02zhSNVVwBAGdyKc0oOyIuZBtQ52XDgLo3pjOgDoDrIxq7oMy7gEtic5VonCoBAx8Vb/W5+DwuQ/ak6ftNiMZwJequh4Mxl7Q7IeoNzR2Q1VvpPpgbKqtD4rU7LQBriMYAzNRdeOp88OWiY/oeAHA88ZfSZX0hBtSpd+YxoA6AOyIau5x0CR3XUsoazFG3uDfXicY7BzyiR+NmMnQf0RjuQQXk4NPJ0mdluNS1EpAr9tomH/4ZKv8cISAjO6IxALMnfzZF4y+IxgAcQNYBdWpQtD0D6j5feIwBdQCgIxq7GuNJmfpGRTGo+OlVV94cOlWmTZuW/zalh7SorC9PUbmF9Jhi5TE5tqnD35b6WkR1nWi8vd+DejR+SoYfIBrD/agL7KDTydJ7RbjUGWI9IKu37a0NjZcrRtZoc3dEYwBmT/9yQDsffLbgqL4HAEpG1gF1PZadkOftHFA3Zy8D6gAgL0RjVxO/QD7QAqqHeFb/UBbG6/vzY4mu6jm2DcIzngmQRVOnyJQpU2TG2qOFjKiOFY239Gxkisa+z8vow9m/IqIx3I0KyGoASK8V4dq6bTkvtiv12iYfzwuVdaEJBGQ3RTQGYKbiizofdJpPNAZQfLIOqPvqr2Py+LhAuwbULQ4+x4A6ALAD0djFJK/5RurpdwBXaDdFoo36gfwUIhoXDUeKximyrlsD8VKfS9mX5Zew7H9xRGO4M3VhvT/jAr3n8hNWA/ItvbfJJ/OPamvEEZDdB9EYgFnziaZorH6ZCABFIeeAugdsGFCn3ilnHlCnllZjQB0AXBuisUtJFf8+TUx3y3r4SvNRB22Lm0TjDMmy/Ita4qk+l3Kvy9Qz+m4d0RgwUQE58GSSfL/8hNw5OHdAVm8HVHeabSAguzyiMQAz9XZwdT5QYQcA7JVzQN1dP+wqcEDd/SMYUAcAxY1o7EqM0fJbG1MU9TD4Sp1mraVNmzYFb62bSR1ffU1j3zrSrLWVxxS4tZVOvwZK9pWAC+JI0fiizHuvkrYWtMHvA1mofeBMRGMgNxWQ90UnaevH1cojIH+64KhsPJbAOnEuiGgMwKzlr6Zo/MFcojGAvKlrx5OJabLs4DmbB9T5dN8qj44NzDagLu0KA+oAoCQQjV1Jliha8pu3PDIgQApqvtk5UDTOcsyrQTdZpz0hE9EYyJ96EaAu4r9bdkJqDsodkP36bNcGJG06nkhAdhFEYwBmL/warJ0P1F1/AKCYB9TNK8SAum5LGVAHAI6AaOxKjDHyV49W0rJlSxu2p+QePxVVs4ZfDzH41JKHW1h7vPXt2YbVTEs62LMchkXRR+NaH82W0KhIObSipzQrq+6eVtF4U8HRONVf+jT21o75PjdKDuX4QojGgO1UQN4TlSTdMy7477By90iVPtu1u0U2E5CdGtEYgNlLv5ui8buzicaAO7qWAXX9VkUwoA4AHBTR2B0ZY2XriFZSw8u0JIVnxapSxUf//+1a0zhdDo5sLr4Zz/PwKCutJ0WILXP3MhV9NK7Zrr08X870tWibwVdajAkxRd58orEx4jdpU149z1Nu67TY9HGzIBoDhaMu/ndHXdTuGLH29sOqfbfLF4uOyZYwArKzIRoDMGs1+aB2PugwO0TfA8BVZR1Q9+GfhRtQF5fMgDoAcAZEY3eTEiqLuj0pVT1NUdVQrrF8NX+yfKxFV3ujcaps7/egafCeoYK8MydR32+rYlie4vOJMuw5X+3jqcdUeqSrLInWU3ae0dgo0dPeFD+D+joqStvJkbniN9EYuHYqIO+KvChdl4TJ7QOsB+QvFx3ThpmotzTCsRGNAZi1nmKKxm/PIhoDriTrgLr2Mw7bPaDO/8QFSWJAHQA4LaKxG0k5tkwGtKot3iqOeniIoXxj6TQnRFKSzNHV3micLMs+r2lansKzpny+zOYn6goRjY1R8s8v/aVv334yaPZe0+C9bGsaL5ODqybJ2HGTZObSAInM+inlFY3TDsjI5uW1IXgeXrWl/cQ9EpejGhONgaKlAnJA5EXpsjhMbrMSkP+v3w7t7Y3qxQYB2TERjQGYqWFW6nygohIA56Ouy3IOqLP2C/6sW84BdWo4MgPqAMC1EI3dgTFWdk3vIs1v9zKFURVNqz0t3y8JN8VPS3S1MxobT8rktuVMH9O7kfTaWlDxzakQ0diabNFYH4RnlVESYyIkPDxcIqJi9celS9jMt6Wmfue1thnKSr1W38vMPbGZdxynxEl0RHjGcyMkJpFkDBQlFYV3RlyUzouPS/X+O3K9KKnWb4d8/ddx2UZAdihEYwBmbace0s4Hb04nGgOOTl1LHY3NPqDult7bsl175dwq9tomzzKgDgDcDtHYpaVJtP9U6f5SXSmr312slmyo/MhnMn1/lqUkChmNUw79Im2qmp5nKPuyTDhh34rGJR+Nc0sKHC9tbtO/hnJ15f67K1jCuqFsXXnxuxmy66y9XxeAwlIvZNQ6ed/+bT0gq6Ep32Qc2x5OQC5tRGMAZq9NM0VjtWYpAMfx75Wrsv9UsvwRkDmg7qbvtma7tsq5qWsttU45A+oAAERjl5QiEVtnSP+3H5Kq+rA7LYL61JIWPf6UoAT9YWZ5RuN0ObFkmHT55hv5Jsf25Uft5NHbvPXAahDfJ36QfdpaEfYo3WicGDhZOjTwMX0NhkryzNAdcjE+SOb3aSN3W4bpZXxttVtKtxm5l6wAULxUFFZxWEVi9QLG2osaFZdVZCYglzyiMQAzFYvV+UDFYwClwzyg7pet9g2oU+8QGL6eAXUAgNyIxi7EGH9E1v4xSD5pcZdUsNxZrIKor9zZ4lv5bWu0aQ3gnPK50zh+/vtSLevHsrIZvBvIp4uiMpdyKGl2R+NECfqzmzyT8RxTMPaRuzvOlFDLX45RYndNla+eqi5e5q/dUF7ueX2ILDtqz33MAIqKisJqeQq1TIVariLnix51V7Ja3kItc8HdMCWDaAzA7H8zTNFYLVMBoPiZB9SNyDKgrkyW66KcW9YBdeO3nGJAHQDAJkRjp5cmx1aPkx7vtZB7/DLXLDaFTh+57fGOMmTeXonNr+jmE43TQ8dJS98sHzPLZjCUldseflP6LTwsSfrjS4XN0ThdzuyZK/3fuF8qWmJwObn//WkSbO1JKcdlxdDXpEGWu449qz0mn07ylxiWNQZKjQrI6sWOepulGpiX84WRGqynBuypQXsE5OJDNAZgpqKVOh+o4VkAik7OAXWtGVAHAChBRGOnZ5SzK7+Vhj5ZlqHwriZNXusq45YE2bakQj7RWNIjJWDVSlmzbqNs8d8hu/bslcD9QRJ8KFTCzySV3t3FWRUUjZPCZdv8MdKlXePsy3WUvVteG75OovMNwOkSs3W8dHygYmaQN/hK3Va9ZdHhvPM0gJKhAvLWsET5ctExqdp3e64XTuqFVdclYbKLgFzkiMYAzN6eFaKdD1TQAlA46pom64C65ybaP6DuyNkUBtQBAIoM0dgVGM/Kiq8bS62HXpUvhv4h/4TE2xdz84vGziDPaJwo20a1k/uqmNdezoy+tZp/LZN3nLH578kYt0smf/KQVNLuUDaIV523ZfoRuxdxBlCM1IukLWGJ8kUeAbnGwJ3ai6rdUQTkokA0BmDWYbYpGqvhWQAKVpgBdWoprqwD6qISGFAHACheRGNXkZ4uhV4xwWWjsYgxYqF0utc87M5HajTrKIP+LGC5jrwY4yTg1w+kyW2PSc+1Zx3jLmsAVqmAvPl4ovbWzCp9cgfkOwbulO5Lw2RPVBIvuAqJaAzA7L05R7TzwUu/B+t7AJipAXVqsK89A+rqDmVAHQCg9BGNIWKMkaDN62XdunWyfnOQxDhbDbV8/utl68HcMff85pHyySf9ZcqaEIm/5q/NKPGxcdYHCgJwSCogbzqeKJ8tOCp+VgJyzUEB8t2yE7I3moBsD6IxADM1XEudD174lWgM93b+UrqsC7V/QN37cxlQBwBwPERjAIDbUAF547EE+XTBUancO3dArjU4QFtHUA2NISDnj2gMwOyDuaHa+aDlr0H6HsC1qWsE84C6AavtG1CnltGaspMBdQAAx0c0BgC4pSvG/2TD0QTpND/vgPz98hMSeJKAbA3RGIDZR/NM0fj5SURjuJ6sA+rUO5PsHVA3d18sA+oAAE6JaAwAcHsqIK8/miCfzD9q9YXgnYMDpOfyE9rQGgKyCdEYgJk6d6rzQfOJB/Q9gHPKOaDuMTsH1C1hQB0AwIUQjQEAyEIFZLUe4cfzQqVSr9wBufaQAOm1IlwOuHlAJhoDMFPv2FDng2cmEI3hPHIOqGs0Mv8BdWptYgbUAQDcCdEYAIA8pBuvytrQeO2t19YCcp0hu6T3inAJOu1+AZloDMBMDRpV54OnfyEawzHlHFBXb2jBA+oaMqAOAODmiMYAANhABWR1V5G6G0mtVZjzBaa6+6jPynAJdpOATDQGYKYGe6nzwZM/79f3AKVD/fyNTrgsS+0cUNf0JwbUub50ObF+ukycMEEmTJgoMzaGZ+yxg/Gs7Jw/MeO5Gc+f+LusOJyqHwAA10U0BgDATiogrzkSLx/MDZUKPXMHZHUHU99V4XIw5pLLBmSiMQAztfarOh80G080RskxD6j7c5/9A+q6M6DO/cSvlm8beImHh4cYvB+QnpuS9AO2STswUp4tZ9Ce71mjo/x52qgfcTAp62RAy6by6KOPSauhmyVF322XlI0y+KXHMj7Go9Ksw0QJTtP3A3A7RGMAAK6BCsirQ+K1t7BaC8h3/bBLG45zKOaS/gzXQDQGYPb1X8e184EaGgYUh6wD6r5cZN+Auv6rGVCHNNk/6nmpaPAQDw9Pqf7mVAmz6zbjeFn1dX3x8sh4vsFHHu6/vXAxtiQkL5ZO1T21r/POr1ZIsr7bLsnL5POa6mN4iE/TQbKLaAy4LaIxAABFRL2oXRVyXjrOOSI361E161Z/2G7txevhM84fkInGAMy+/dsUjdVb/IFrlXVAnXpHj70D6tQsAgbUIav0o1PkjdtMEdRQ/hkZvse+pSXSDoyWFhX1u4yrvSlTwx30LmOFaAygCBGNAQAoBiogrzx8Xt6bc8QSWLNuDYbv1tZbDDnrnAGZaAzArMviMO188MjYffoewDb2Dqi7vsuWbAPqtjGgDgVJPybT2tcUT3WXsIrGPpWkes2aUrPA7W7ptCBRxBguM9+ukfl8Xz+53erjrWy1m8uQ7SW89jHRGEARIhoDAFDM1ECdFYfOy7uzrQfke4bvloFrIrS1FZ0F0RiAWbelpmj80BiiMayzNqDutgIG1Pl+x4A6XKsUOfBzG6nuaQq+9m3l5K1Z5yVywcdyl5e14zZs3g2l55b8o3Fy5E75+7dh8v0XHaV929by8suvyKtvviefdR8qExf4ywn7ll4u8mhsqFRfnmjZUlrmu70gbYeud9wlOwAUGtEYAIASpF7wLj90XjrMDpFyPXIH5Ht/3COD1kRKaKxjX3oTjQGYqaFi6nzQZPRefQ/cmRpQp36G2TugrvlEBtShKBnlzJrvpWl5fVmJKs9Jt0kzZebMyTKo/b1SsVZr6TtZ/e+8tjmydtN06VDbNDzPw6uOvDF0munYhO/l5brV5Ymvfs7xnBzb7MWyM4+Beca43TKt6wtSVx+uZ30ziG/t5+WbKQESa+uKGEUcjW3bDOL3wUKxt28DcHxEYwAASokKyMsOnpN3ZoVIWSsB+b4f98jgfyK16fCOhmgMwKzHshPa+aDxKKKxu1FLMQWeTJKpATF2Dah7hQF1KGYJAWPlldv1u2W968l7M4+Jmn0Xu+Rz053DBm+p99ZkCcqrqibulJEv3qovS+EldT+cL5Eq3KYFy08vVBJDxn7PKs9Iv7UxYu8Kx8bIpdLt8crax8gaXg3e5aVy5fLibcgRkg2V5bGuSyTCluF9RX2ncYXa0qRZM2mW7/aEtOz/D3caAy6IaAwAgAO4nH5Ve9vu23kE5PtH7JEhax0nIBONAZj1XG6KxmpgGVxXsj6g7ucsA+rUGsNZf1Zl3bIOqPtRH1B3LtmW6gVcm/idP0nbO71MUdazmrQY5i/x+jFJD5M/P6wv3gYVY33lvo/mSGiuNXsTZN13D4iPeoyHQbzrd5KFUZlp+PyWQfKsn34Hc/WXZOSOBP2IDdKC5ZfW5hitPj8/eejdoTJ361E5r38eabEhsnHmAHnz/gqZYTnj63h53H7JtthF+kGZ+NaD0qhRo8ytYV2p4qU+t4zPu2q97McaNZHWP+7I/jGsYU1jADqiMQAADkYFZHX31VszQ6zesaWGAA1dGynH4kovIBONAZj1XhGunQ/UL7fgGswD6lTs/Z+dA+pUVGZAHUqHUWI3DpbntTttTUH2yZ6r5WTOW4Hj/WVIcz8tyBq875bPF5/JdbewMWaLjP1ffSlb6Unpv+m8vtcsXY7O7CB19Djr99J4OWjT70OMcnLue1LDvMayZ3V5ecQ2icvjVmVjzHrp90zmHcme1d+Smdrtzrq0fTK0mY/pY9m0ecl9PTYWfEcw0RiAjmgMAIADS/3XKIuDz2lT5a0FZHWn1w/rouR4XMlO5yYaAzDrs9IUjdWa7HAuOQfUqWUj7B1Qp5anYEAdHIXx5Brp/UwV8fS8VZr3XSPReQTZ9GOz5P2mz0n3hUfyXsIhNUz8/Y9avzPXeEZWd3tSHun4i2w7m8cfkpPxhExqY7572CCVXhovIQXE5pQ9P8hTZfXlKgwVpM2v4ZmB2xKNDeLd4EX58OOP5eMPW8l92uMNUr5Ra33fK9JQW9uZaAzAPkRjAACchArIfwfFaXd9qRftOV/IPzBqrwxbFyVh54o/IBONAZj1WxWhnQ/uGb5b3wNHlHNAnRo8V6lX/gPq1PGsA+rU8xlQB0dnPLlW/pgVIOeNF2X+RzWlSpUqVjc/Pz+r+23e/CqLX7Z9VaXeF0vyjtCxs+XtyuYAXEnenHa64PWQ0w/JqOa+pud4eMrtn2b5+FmiccX35pkG0Vlb09gSgbNG44sSvGqmTJs2Lfc2pae8WMX0eXrd/ZYMm2rlMdo2U1YcsGNpDgBOh2gMAIATUgH5r6A4ba1IawFZDaQavj5KThRTQCYaAzBTd6iq80H9YURjR2FtQJ21nxVZN3WHMQPq4FoSZfbb5bT4WTKbQfw+WGiKt1akbu8nD3rrj/V+RAbstOUa7aLMeae8ZYmKcv+bIXH6kWuKxsYImdi6rOlzKfTmKy+ONw0YBOCaiMYAADi5lH+NsuhAnLwx/bD4dM8dBZqM3qutSxl+vugCMtEYgNmgNZHa+eCuH3bpe1CS1IA6tYawvQPq1LtWGFAH15Yqu6b3k549e9q+9XhHHtaWcvAQQ/mH5Z0eVh6Tc/u0hdTU1inOPxpLarxEHQmU7RtWyd/zl8vevBYzzio9VH5qYb7T2CBVPliQ+fGJxgCKGdEYAAAXogLywv1x8vo06wH5wdH7ZMSGaImIv6w/o3CIxgDMBv9jisYqRKJ4qbirIq+9A+pUTDYPqFORGUAeLNFVDZ7rJIvzXGsiU9ruIfKYj4qoBUTjQkg/PknaVNSXtPDwkad/PCCWJYaLKBp71vxAZgSFSEiIbVvw7E5Sx4toDLgDojEAAC7qUppRFuyPk9emHZIbrQTkh8bsk5EboiWyEAGZaAzAbOhaUzSuM4RoXFSyDqhTy0XYO6BOLUuhlqdQy1QAsINDReME2dCjsXgb1Mf2EIPP4zJkd5apdEUVjWt/Jats+DrNUv7pIncTjQG3QDQGAMANqIA8PzBW2v1hPSA/PGafjNoYra1haQuiMQAzNYBTnQ/uHByg74E9sg6oUwPnGFAHFKUEiQo9YvWOWavbgSnyTjV9eYpq78iUA1Yek2M7uKy7vlZx0Ubj8xt6SdNy5ruMPaV6+2kSnvWNAsUWjdMlZMa38ka7dtLujS4yKzR7FiYaA+6DaAwAgJtRb02eFxgrbaceEu9uude9fGTsPhm9Kf+ATDQGYKaWSlDng5qDiMYFyTmgTt0ZbO+AOnUHMgPqANtk3gVcElvRReOUw9Okw13elgF4ntVayy/BWe4yVootGqdKwMBHxVv92eru5j3Z/1yiMeA+iMYAALgxFZDV3W2v5hGQHx0bKGM2ndQiRVZEYwBmap10dT6oMXCnvgdKzgF1am3hggbUqTWKGVAHFJV0CR3XUsrqyzsU/1Y00Tg19E/p1KicJRgbvO+SjrOtxNlijMY7BzyiR+NmMnQf0RhwV0RjAACgSbp8RXubc5spB+WGrrnDhrojbuzmk3IyMY1oDMBCLW2jzge3D3DfaFyYAXWNRu5lQB1QnIwnZeobFU3x1auuvDl0qkybNi3/bUoPaVFZX56icgvpMcXKY3JsU4e/LfW1iHrt0TjpwFTpeF9ZSzD28LxNXhq5TeL149kUYzTe3u9BPRo/JcMPEI0Bd0U0BgAAuVy8fEXm7D0rrfMIyOaNaAxAvRtBnQ+q99+h73FdalkItXSPWibC3gF1ajkKBtQBJSh+gXygBVQP8az+oSy0Wl5zsERX9RzbBuEZzwTIoqlTZMqUKTJj7dFCRlSjnNn0o7S5M3NJCoNXDWk1YqvE5vX7pGKMxlt6NjJFY9/nZfTh7F8R0RhwH0RjAACQLxWQZ+85q8URrxwBmWgM4KfNpmhcrZ9rRWPzgDr1Dgx7B9R9t+yEtvQPA+qA0pO85hupp98BXKHdFIm25Wb+QkTja5ckB2d/IY9UMg+98xCDb315e9IeSdAfYVWxReMUWdetgXipz6Xsy/JLWPa/OKIx4D6IxgAAwGYXUq/IrD1npZUekInGAMZvOaUF06p9t+t7nE/WAXVfFGJA3dKDDKgDHEuq+PdpYrpb1sNXmo86aFvcLOlobDwpa4e8LDW9MoOxp9/j0nnh0YyvoADFFo2TZfkXtcRTfT7lXpepZ/TdOqIx4D6IxgAAoFBUQD6VmGOSNwC3o9bkVRHVr49zROOsA+ren3uEAXWAKzJGy29tTFHUw+ArdZq1ljZt2hS8tW4mdXz1NY1960iz1lYeU+DWVjr9GigFXiElH5JZnZpIBcugPoP43PWGjPU/KzatcF5s0fiizHuvkrZMhsHvA1mofeBMRGPAfRCNAQAAABTaBH9TNK7c2/Gicc4BdXUZUAe4hyxRtOQ3b3lkQED+dwon7pWJb9YVb0sw9pQqT3STv44VeH9xpuKKxlmOeTXoJuu0J2QiGgPug2gMAAAAoNAmbTutBVe1nm9psTagTg3myxmFs25q+YnHxjGgDnBJxhj5q0cradmypQ3bU3KPn4qq5oBr2gw+teThFtYeb317tmE105IOBS2HkRwkv/2vTmYwNvhIvdfHyfY4O39BVUA0rvXRbAmNipRDK3pKs7Lq7mkVjTcVHI1T/aVPY2/tmO9zo+RQji+EaAy4D6IxAAAAgEJTa5urCFuhZ8lEYzVY7shZ+wfUPTcxiAF1ALIzxsrWEa2khr6msGfFqlLFR///7VrTOF0OjmwuvioCe5SV1pMirC8xYTwty75tLGUtwbicNPpklhy2+c/JooBoXLNde3m+XOZayWqZjhZjQkyRN59obIz4TdqUV8/zlNs6LTZ93CyIxoD7IBoDAAAAKLTfd8RoYbb89/76nqKTduWq7ItOkik77R9QN4ABdQDykxIqi7o9KVU9TVHVUK6xfDV/snysRVd7o3GqbO/3oGnwnqGCvDMnUd+flVEi530gdbXgqh7nJXXemiqH7ViRIpuClqf4fKIMe87X9GdlPKbSI11lSbSesvOMxkaJnvam+KmobagobSdH5orfRGPAfRCNAQAAABSaCroq1pbtcW3R2DygbvwW+wfUjdgQLetCExhQB8AmKceWyYBWtS1LRBjKN5ZOc0IkJckcXe2Nxsmy7POapuUpPGvK58usPPH8avn2Xi/tY2sfv1Z7meAfJMHBwTZvB8NiMwfsGaPkn1/6S9++/WTQ7L2m/dnWNF4mB1dNkrHjJsnMpQESmfVTyisapx2Qkc3La0PwPLxqS/uJeyTnqhlEY8B9EI0BAAAAFNofAWe0iKvuALaVeUDd8PVR8uZ0+wfUbQ9nQB2AQjDGyq7pXaT57V6mMKqiabWn5fsl4ab4aYmudkZj40mZ3Lac6WN6N5JeW3PePmyUE5Pbme7g1f/cwmxlW0+UiPxOfdmisT4IzyqjJMZESHh4uERExeqPS5ewmW9LTf3Oa20zlJV6rb6XmXtiM+84TomT6IjwjOdGSEwiyRhwZURjAAAAAIU2fZcpGvt0zx2Ncw6oa1WIAXX7TyUzoA7ANUqTaP+p0v2lupnrCXsYpPIjn8n0/VmWkihkNE459Iu0qWp6nqHsyzLhRI6ya4yWKe0qWEJ1Ybeii8a5JQWOlza36V9Dubpy/92Zn6+hbF158bsZsussv6wD3AnRGAAAAEChzdx9Vou96m5gewfU3dI794C6qwyoA1BkUiRi6wzp//ZDUlUfdqdFUJ9a0qLHnxKUoD/MLM9onC4nlgyTLt98I9/k2L78qJ08epu3HlgN4vvED7LPsoaELtVf+jTxtvz5hd2KKxonBk6WDg18TF+DoZI8M3SHXIwPkvl92sjdlmF6GV9b7ZbSbUbuJSsAuCaiMQAAAIBCm7XHFI0L2m4fsFNaT2FAHYDiZ4w/Imv/GCSftLhLKmRdEsLgK3e2+FZ+2xqduTZwVvncaRw//32pVsDyEgbvBvLpoqhcw+NKjN3ROFGC/uwmz2Q8xxSMfeTujjMlNHPhZIndNVW+eqq6eJm/dkN5uef1IbLsqD33MQNwRkRjAAAAAIU2Z2/2aGweUNc+y4C685dY9xJAcUuTY6vHSY/3Wsg9fplrFptCp4/c9nhHGTJvr8TadKdu7micHjpOWvpm+ZhZNoOhrNz28JvSb+FhSdIfXypsjsbpcmbPXOn/xv1S0RKDy8n970+TYGtPSjkuK4a+Jg2y3HXsWe0x+XSSv8RwegdcFtEYAAAAQKFtOJqgDaj7hQF1AEqVUc6u/FYa+mRZhsK7mjR5rauMWxJk25IK+URjSY+UgFUrZc26jbLFf4fs2rNXAvcHSfChUAk/k1R6dxdnVVA0TgqXbfPHSJd2jbMv11H2bnlt+DqJzjcAp0vM1vHS8YGKmUHe4Ct1W/WWRYfzztMAnBfRGAAAAAAAOD/jWVnxdWOp9dCr8sXQP+SfkHj7Ym5+0dgZ5BmNE2XbqHZyXxXz2suZ0bdW869l8o4zNv89GeN2yeRPHpJK2h3KBvGq87ZMP2J1sQ8ATo5oDAAAAAAAXEN6uhR6xQSXjcYixoiF0ule87A7H6nRrKMM+rOA5TryYoyTgF8/kCa3PSY91551jLusARQ5ojEAAAAAAIAxRoI2r5d169bJ+s1BEuNsNdTy+a+XrQdzx9zzm0fKJ5/0lylrQiT+mr82o8THxlkfKAjAJRCNAQAAAAAAAAAWRGMAAAAAAAAAgAXRGAAAAAAAAABgQTQGAAAAAAAAAFgQjQEAAAAAAAAAFkRjAAAAAAAAAIAF0RgAAAAAAAAAYEE0BgAAAAAAAABYEI0BAAAAAAAAABZEYwAAAAAAAACABdEYAAAAAAAAAGBBNAYAAAAAAAAAWBCNAQAAAAAAAAAWRGMAAAAAAAAAgAXRGAAAAAAAAABgQTQGAAAAAAAAAFgQjQEAAAAAAAAAFkRjAAAAAAAAAIAF0RgAAAAAAAAAYEE0BgAAAAAAAABYEI0BAAAAAAAAABZEYwAAAAAAAACABdEYAAAAAAAAAKAT+X/yKJDRqCiMUwAAAABJRU5ErkJggg==;" vertex="1" parent="1">
          <mxGeometry x="-60" width="1421" height="814" as="geometry" />
        </mxCell>
      </root>
    </mxGraphModel>
  </diagram>
</mxfile>
